<?xml version="1.0" encoding="utf-8"?>
<!-- Generator: Adobe Illustrator 22.0.0, SVG Export Plug-In . SVG Version: 6.00 Build 0)  -->
<svg version="1.1" id="Capa_1" xmlns="http://www.w3.org/2000/svg" xmlns:xlink="http://www.w3.org/1999/xlink" x="0px" y="0px"
	 viewBox="0 0 724 490" style="enable-background:new 0 0 724 490;" xml:space="preserve">
<style type="text/css">
	.st0{opacity:0.13;stroke:#000000;stroke-miterlimit:10;}
	.st1{fill:#6B3C15;stroke:#6B3C15;stroke-miterlimit:10;}
	.st2{fill:#FFD1A2;stroke:#FFD1A2;stroke-miterlimit:10;}
	.st3{opacity:0.14;stroke:#000000;stroke-miterlimit:10;}
	.st4{fill:#D89FED;stroke:#D8A3ED;stroke-miterlimit:10;}
	.st5{fill:#3B1E4A;stroke:#3B1E4A;stroke-miterlimit:10;}
	.st6{display:none;opacity:0.13;stroke:#000000;stroke-miterlimit:10;}
	.st7{fill:none;}
	.st8{fill:#00FFD7;stroke:#00FFD7;stroke-miterlimit:10;}
	.st9{fill:#96F0AB;stroke:#96F0AB;stroke-miterlimit:10;}
	.st10{fill:#0FC99D;stroke:#0FC99D;stroke-miterlimit:10;}
	.st11{opacity:0.15;fill:#FFFFFF;stroke:#FFFFFF;stroke-miterlimit:10;}
	.st12{opacity:0.13;fill:none;stroke:#000000;stroke-width:2;stroke-miterlimit:10;}
	.st13{fill:none;stroke:#00E3A9;stroke-width:2;stroke-miterlimit:10;}
	.st14{fill:#31EAA1;stroke:#31EAA1;stroke-miterlimit:10;}
	.st15{fill:#00B1AB;stroke:#00B1AB;stroke-miterlimit:10;}
	.st16{fill:#666666;stroke:#666666;stroke-miterlimit:10;}
	.st17{fill:#B3B3B3;stroke:#B3B3B3;stroke-miterlimit:10;}
	.st18{fill:#593110;}
	.st19{fill:none;stroke:#356FE5;stroke-width:9;stroke-miterlimit:10;}
	.st20{opacity:0.15;}
	.st21{fill:#FFFFFF;}
	.st22{fill:#96F0C0;stroke:#96F0AB;stroke-miterlimit:10;}
	.st23{opacity:0.13;}
	.st24{fill:#4949E2;}
	.st25{opacity:0.13;fill:#FFFFFF;stroke:#FFFFFF;stroke-miterlimit:10;}
	.st26{opacity:0.26;}
	.st27{fill:#808080;stroke:#999999;stroke-miterlimit:10;}
	.st28{fill:#CCCCCC;stroke:#CCCCCC;stroke-miterlimit:10;}
	.st29{fill:#FF4F43;}
	.st30{opacity:0.28;fill:none;stroke:#FFFFFF;stroke-miterlimit:10;}
	.st31{fill:none;stroke:#FF777C;stroke-miterlimit:10;}
	.st32{opacity:0.29;fill:none;stroke:#87FFB9;stroke-miterlimit:10;}
	.st33{opacity:0.39;fill:#3200DF;stroke:#3200DF;stroke-width:2;stroke-miterlimit:10;}
	.st34{opacity:0.39;fill:#5D00CE;stroke:#5D00CE;stroke-width:0.5;stroke-miterlimit:10;}
	.st35{opacity:0.39;fill:#17FF4B;stroke:#17FF4B;stroke-width:0.5;stroke-miterlimit:10;}
	.st36{opacity:0.39;fill:#EA2E9C;stroke:#EA2E9C;stroke-width:0.5;stroke-miterlimit:10;}
	.st37{opacity:0.39;fill:#85008B;stroke:#85008B;stroke-width:2;stroke-miterlimit:10;}
	.st38{opacity:0.39;fill:#17CEFF;stroke:#17CEFF;stroke-width:2;stroke-miterlimit:10;}
	.st39{opacity:0.39;fill:#FFFB00;stroke:#FFFB00;stroke-width:0.5;stroke-miterlimit:10;}
</style>
<path class="st0" d="M528.5,130.5c0,16.6-6.3,30-14,30s-26-3-26-30c0-31.1,18.3-30,26-30S528.5,113.9,528.5,130.5z"/>
<path class="st0" d="M519.5,109.5c0,37.6-3-15-27-38c-27.1-26-90.2-30-48.5-30S519.5,71.9,519.5,109.5z"/>
<path class="st0" d="M584.5,196.5c4,1,10.9,4.7,13,8c1.9,2.9,3.6,7.7,5,15c1.6,8.1,3.2,17.6,4,24c0.6,5.1,2.6,14.2,3,19
	c1,13,0.6,35,0,48c-0.5,10.2-2.5,32-5,43c-2.7,11.8-11,38-11,38h-10l-59-195l1-3c0,0,10.7,0.7,16,1c5.5,0.3,16.5-0.3,22,0
	C568.8,194.8,584.5,196.5,584.5,196.5"/>
<ellipse class="st1" cx="440" cy="109.5" rx="75.5" ry="68"/>
<path class="st2" d="M469.5,246.5l-1,13l2,16c0,0-10.1,0.3-14-1c-2.6-0.8-12-7-12-7l2-10c0,0-8-6-11-12c-2-3.9-4-17-4-17
	s17.2-4,22-7c5.1-3.2,13.2-12.4,17-17c3.1-3.8,7.3-13.4,9-18c2.1-6,4-28,4-28s9.2,23,10,35c0.3,4.3,1.3,27.3-1,31
	C487.5,232.5,469.5,246.5,469.5,246.5z"/>
<path class="st3" d="M474.8,271.2c0.2-3.2-5.3-22.7-5.3-22.7s-1,24-3,25s-18-4-18-4s0,6.3,0,13.5
	C448.4,289.4,474.3,280.1,474.8,271.2z"/>
<path class="st4" d="M474.5,378.5c0,0-33.5,10.3-36,9c-2-1,9-39,9-39s3.5-20.8,3-29c-0.6-8.9-6.1-30.4-6.6-39.3
	c-0.2-3.2,0.6-12.7,0.6-12.7s9.3,7,13,8c3.1,0.9,13,0,13,0s-0.3,25.5,0,34c0.3,8.3,1.8,24.7,2,33
	C472.7,351.3,474.5,378.5,474.5,378.5z"/>
<path class="st0" d="M409.5,221l26,4.2c0,0,2.1,15,5,19.8c1.7,2.8,10,10.4,10,10.4s-2.7,11.6-3,15.6c-0.3,4.2,0.4,12.5,1,16.6
	c1.2,8.1,6,32.2,6,32.2l-4,34.3l-8,36.4L409.5,221z"/>
<path class="st5" d="M397.5,400.5c0,0-0.7-6-1-8c-0.4-2.8-1.3-8.3-2-11c-0.6-2.5-3-10-3-10s-3-9-4-9s-3.8,6-5,8s-3.7,6-5,8
	c-1.6,2.4-4.9,7.3-6,10c-0.8,1.9-1.9,5.9-2,8c-0.1,2,1,8,1,8l-47-82c0,0,10-7,11-8c1.4-1.4,0.2-6.2,1-8c1.3-2.9,6.4-6.3,8-9
	c4.5-7.6,10-34,10-34s4.9-16.4,8-21c3.1-4.6,11.9-10.8,17-13c6.3-2.7,27-5,27-5l26,4c0,0,2.1,14.4,5,19c1.7,2.7,10,10,10,10
	s-2.7,11.2-3,15c-0.3,4,0.4,12,1,16c1.2,7.8,6,31,6,31l-4,33l-8,35L397.5,400.5z"/>
<path class="st6" d="M578.5,198.5c4,1,10.9,4.7,13,8c1.9,2.9,3.6,7.7,5,15c1.6,8.1,3.2,17.6,4,24c0.6,5.1,2.6,14.2,3,19
	c1,13,0.6,35,0,48c-0.5,10.2-2.5,32-5,43c-2.7,11.8-12,40-12,40l-168,25v-31c0,0,13.5-3,18-4c6.5-1.4,19.6-4.2,26-6c2.3-0.6,9-3,9-3
	s-0.7-5.4-1-11c-0.4-6.9-1.4-15.3-2-27c-0.5-9.8-1.5-20.7-2-31c-0.5-11.9,0.5-24,0.1-34c-0.2-6.2-1.9-11.8-2.1-16
	c-0.1-3.3,1-13,1-13s10.6-8.8,14-12c2.4-2.3,9-10,9-10l10-16l16-13c0,0,15.7,2.7,21,3c5.5,0.3,16.5-0.3,22,0
	C562.8,196.8,578.5,198.5,578.5,198.5"/>
<path class="st5" d="M580.5,200.5c4,1,10.9,4.7,13,8c1.9,2.9,3.6,7.7,5,15c1.6,8.1,3.2,17.6,4,24c0.6,5.1,2.6,14.2,3,19
	c1,13,0.6,35,0,48c-0.5,10.2-2.5,32-5,43c-2.7,11.8-11,38-11,38l-169,12v-16c0,0,13.5-3,18-4c6.5-1.4,19.6-4.2,26-6c2.3-0.6,9-3,9-3
	s-0.7-5.4-1-11c-0.4-6.9-1.4-15.3-2-27c-0.5-9.8-1.5-20.7-2-31c-0.5-11.9,0.5-24,0.1-34c-0.2-6.2-1.9-11.8-2.1-16
	c-0.1-3.3,1-13,1-13s10.6-8.8,14-12c2.4-2.3,9-10,9-10l10-16l16-13c0,0,15.7,2.7,21,3c5.5,0.3,16.5-0.3,22,0
	C564.8,198.8,580.5,200.5,580.5,200.5"/>
<path class="st0" d="M528.5,248.5c-0.1,3.8,2.2,11.2,2,15c-0.1,3.4-3.2,10-2.9,13.5c0.3,3,4.1,8.5,3.9,11.5c-0.2,3.6-5.7,9.4-6,13
	c-0.2,2.6,3,7.4,3,10s-2.7,7.4-3,10c-0.2,2,0.9,6,1,8c0.2,2.5,0.6,7.6,0,10c-0.5,2.2-3.7,5.8-4,8c-0.4,3.4,4,13,4,13l-15,7
	c0,0,2.3-13.9-0.2-17.4c-1.1-1.5-5.6-1.8-6.8-3.6c-1.5-2.4-0.5-8.7-2-11c-1.4-2.1-7.1-3.7-8-6c-1.2-3,1.9-9.7,2-13c0.1-3-2.4-9-2-12
	c0.3-2.4,4.1-6.5,4-9c-0.1-3.6-6.2-9.4-6-13c0.1-2.4,4.5-5.7,5-8c0.6-2.5-2.1-7.5-2-10c0.1-3.1,3.2-8.9,3-12c-0.2-3.2-3.9-8.8-4-12
	c-0.1-2.8,3.5-8.2,3-11c-0.6-3.2-6.9-7.7-7-11c-0.1-2.6,4.6-6.5,5-9c0.3-2.3-2.7-6.6-3-9c-0.3-2.7,1.4-8.3,1-11
	c-0.4-2.4-3.4-6.6-4-9c-0.9-3.6-0.1-11.4-1-15c-0.9-3.6-7-13-7-13h33c0,0,3.1,15.4,5,20c1.4,3.3,7.4,8.4,8,12c0.5,3-3.2,8.9-3,12
	c0.2,3.6,5.3,9.6,5.5,13.2c0.2,4.1-4.9,11.7-4.5,15.8c0.2,2.8,4.6,7.2,5,10C531,238.7,528.6,245.2,528.5,248.5z"/>
<path class="st1" d="M524.5,247.5c-0.1,3.8,2.2,11.2,2,15c-0.1,3.4-3.2,10-2.9,13.5c0.3,3,4.1,8.5,3.9,11.5c-0.2,3.6-5.7,9.4-6,13
	c-0.2,2.6,3,7.4,3,10s-2.7,7.4-3,10c-0.2,2,0.9,6,1,8c0.2,2.5,0.6,7.6,0,10c-0.5,2.2-3.7,5.8-4,8c-0.4,3.4,4,13,4,13l-15,7
	c0,0,2.3-13.9-0.2-17.4c-1.1-1.5-5.6-1.8-6.8-3.6c-1.5-2.4-0.5-8.7-2-11c-1.4-2.1-7.1-3.7-8-6c-1.2-3,1.9-9.7,2-13c0.1-3-2.4-9-2-12
	c0.3-2.4,4.1-6.5,4-9c-0.1-3.6-6.2-9.4-6-13c0.1-2.4,4.5-5.7,5-8c0.6-2.5-2.1-7.5-2-10c0.1-3.1,3.2-8.9,3-12c-0.2-3.2-3.9-8.8-4-12
	c-0.1-2.8,3.5-8.2,3-11c-0.6-3.2-6.9-7.7-7-11c-0.1-2.6,4.6-6.5,5-9c0.3-2.3-2.7-6.6-3-9c-0.3-2.7,1.4-8.3,1-11
	c-0.4-2.4-3.4-6.6-4-9c-0.9-3.6-0.1-11.4-1-15c-0.9-3.6-7-13-7-13h33c0,0,3.1,15.4,5,20c1.4,3.3,7.4,8.4,8,12c0.5,3-3.2,8.9-3,12
	c0.2,3.6,5.3,9.6,5.5,13.2c0.2,4.1-4.9,11.7-4.5,15.8c0.2,2.8,4.6,7.2,5,10C527,237.7,524.6,244.2,524.5,247.5z"/>
<path class="st7" d="M415.5,95.5c0,0,2.5-34.5,16.5-44.5"/>
<path class="st0" d="M510.2,106.9l-20.3-1.6c0,0-19-27.1-27.5-32.8c-7.8-5.3-27.2-8.7-36.6-9.8c-8.4-1-25.5,0.8-33.4,4.7
	c-7.1,3.6-20.3,19.1-24,26.1c-3.3,6.1-5,18-5,18l-5.5,8.9c0,0,3.1-27.7,7.8-36.3c3.9-7.2,17.2-18,24.4-22c8.7-4.9,29-8.8,39-9
	c9.7-0.3,28.8,5.1,37.7,8.9c7.5,3.3,20.5,13.6,26.1,19.5C498.4,87.1,510.2,106.9,510.2,106.9z"/>
<path class="st8" d="M504.5,98.5l-20,1c0,0-22-24.4-31-29c-8.3-4.3-27.7-5.1-37-5c-8.3,0.1-24.8,4-32,9c-6.5,4.5-15.2,18.7-18,26
	c-2.4,6.4,1,30,1,30l-10,1c0,0-0.5-27.8,3-37c2.9-7.6,14.5-20.1,21-25c7.9-6,27.2-12.4,37-14c9.4-1.5,28.8,1.3,38,4
	c7.7,2.3,21.8,10.9,28,16C490.4,80.3,504.5,98.5,504.5,98.5z"/>
<path class="st9" d="M367.5,142.5c0,13.8-3.4,25-7.5,25s-13.5-3-13.5-26c0-21,9.4-24,13.5-24S367.5,128.7,367.5,142.5z"/>
<path class="st0" d="M497.5,98.5l-17,2c0,0-20-22.4-29-27c-8.3-4.3-25.7-5.1-35-5c-8.3,0.1-24.8,5-32,10c-6.5,4.5-12.5,10-16,17
	c-3,6-4,17-4,17l-7,4c0,0-1.5-6.8,2-16c2.9-7.6,14.5-20.1,21-25c7.9-6,27.2-12.4,37-14c9.4-1.5,28.8,1.3,38,4
	c7.7,2.3,21.8,10.9,28,16C489.4,86.3,497.5,98.5,497.5,98.5z"/>
<path class="st10" d="M388.5,142.5c0,16.6-6.3,30-14,30s-26-3-26-30c0-31.1,18.3-30,26-30S388.5,125.9,388.5,142.5z"/>
<path class="st11" d="M369.5,172.5c0,0-21.9-3-21-30c1-29,16-29,16-29s-17,5-14,32S369.5,172.5,369.5,172.5z"/>
<path class="st12" d="M370.5,171.5c0,0,31.7,61.4,39.5,72.5c6.3,8.9,23.1,28.5,31.5,35.5c5.3,4.4,21.5,11.5,21.5,11.5"/>
<path class="st13" d="M368.5,169.5c0,0,10.9,46.6,19,59c7.4,11.4,14.2,12.9,22,24c6.3,8.9,21.6,18,30,25c5.3,4.4,23,8,23,8"/>
<path class="st0" d="M403.5,143c0,17.4-9.2,31.5-20.5,31.5s-24.5,0-25.5-32c-0.9-30.1,14.2-31,25.5-31S403.5,125.6,403.5,143z"/>
<path class="st14" d="M404.5,143c0,17.4-9.2,31.5-20.5,31.5s-24.5,0-25.5-32c-0.9-30.1,14.2-31,25.5-31S404.5,125.6,404.5,143z"/>
<ellipse class="st0" cx="381.5" cy="145" rx="19" ry="32.5"/>
<ellipse class="st15" cx="382.5" cy="145" rx="19" ry="32.5"/>
<path class="st2" d="M482.5,165c0,35.1-24.6,63.5-55,63.5s-49.4-28.9-55-63.5c-3-18.5-7.7-43.6,0-54.5c10.1-14.3,41.8-14,59-14
	C461.9,96.5,482.5,129.9,482.5,165z"/>
<path class="st0" d="M417.5,244.5c-2.6,6-10,30-12,30c-4.1,0-7.5-5.8-11-8c-3-1.8-14-7-14-7s0.4-3.7,2.1-7.2
	c2.8-5.6,6.4-13.2,6.9-15.3c1-4.5-8-13.1-12-16.5c-1.9-1.6-5.2-4.9-7-7c-1.5-1.8,0-3.6,0-6c0-2,1.2-25.5,3-29
	c1.4-2.8,10.3-21.4,13-23c0.6-0.4,4,0,4,4c0,0.1-3.5,9.1-2,10c0.5,0.3,6-9,12-10c3.2-0.5,2.7,4.5,3,5c0.8,1.5-11,10.9-9,11
	c2.3,0.2,8.1-2.6,10-3c5-1,6.2,1,6,2c-1,4.8-7,6-13,10c-3.5,2.3-10.2,5.2-10,6c1,3.7-1.1,3.8,0,8c1.2,4.5,3-3,11-9
	c2.5-1.9,13.2-9.4,16-7c2,1.6,1.5,3.6,1,5c-0.8,2.1-6,3-8,5c-3.9,3.9-7,7.5-9,12c-1.8,4-1.1,7.6-1,8c0.6,2.2,9,5,12,9
	c1.3,1.7,11.6,9.8,11,13C420.1,237,418.2,243,417.5,244.5z"/>
<path class="st2" d="M414.5,244.5c-2.6,6-10,30-12,30c-4.1,0-7.5-5.8-11-8c-3-1.8-14-7-14-7s0.4-3.7,2.1-7.2
	c2.8-5.6,6.4-13.2,6.9-15.3c1-4.5-8-13.1-12-16.5c-1.9-1.6-5.2-4.9-7-7c-1.5-1.8,0-3.6,0-6c0-2,1.2-25.5,3-29
	c1.4-2.8,10.3-21.4,13-23c0.6-0.4,4,0,4,4c0,0.1-3.5,9.1-2,10c0.5,0.3,6-9,12-10c3.2-0.5,2.7,4.5,3,5c0.8,1.5-11,10.9-9,11
	c2.3,0.2,8.1-2.6,10-3c5-1,6.2,1,6,2c-1,4.8-7,6-13,10c-3.5,2.3-10.2,5.2-10,6c1,3.7-1.1,3.8,0,8c1.2,4.5,3-3,11-9
	c2.5-1.9,13.2-9.4,16-7c2,1.6,1.5,3.6,1,5c-0.8,2.1-6,3-8,5c-3.9,3.9-7,7.5-9,12c-1.8,4-1.1,7.6-1,8c0.6,2.2,9,5,12,9
	c1.3,1.7,11.6,9.8,11,13C417.1,237,415.2,243,414.5,244.5z"/>
<path class="st0" d="M368.1,130.5c0,0,15.3-9.7,21.4-13.4c6.5-3.8,25.5-21.9,25.5-21.9s-19.2-2.3-25.5-1.2
	c-5.7,0.9-21.4,8.5-21.4,8.5s-2.8,7.9-3.1,13.4C364.7,123.5,368.1,130.5,368.1,130.5z"/>
<path class="st1" d="M367.5,125.5c0,0,15-8,21-11c6.3-3.2,27-19,27-19h-27l-21,7c0,0-2.8,6.5-3,11
	C364.2,119.7,367.5,125.5,367.5,125.5z"/>
<path class="st16" d="M365.8,423.5h-186c-6.8,0-9.2,1-12.3-6.2l-69.9-132c0-6.8,5.6-12.4,12.3-12.4L275.3,244
	c6.8,0,10.2,2.5,14.4,10.3L374,411.1C374,417.9,372.6,423.5,365.8,423.5z"/>
<path class="st0" d="M426.3,405.6l-54.1,3.4l-2.2-4.6c0,0,9.1-2.7,12.2-3.4c3.3-0.7,10-1.5,13.3-2.3c5-1.1,15-4.1,19.9-5.7
	c3.1-1,11-5.7,12.2-4.6c1.2,1.2,0.2,5.1,0,6.8c-0.2,1.5-0.8,4.2-1.1,5.7C426.1,402.2,426.3,405.6,426.3,405.6z"/>
<path class="st2" d="M423.5,407.5l-49,3l-2-4c0,0,8.2-2.4,11-3c3-0.6,9-1.4,12-2c4.6-1,13.6-3.6,18-5c2.8-0.9,10-5,11-4
	c1.1,1.1,0.2,4.5,0,6c-0.2,1.3-0.7,3.7-1,5C423.3,404.5,423.5,407.5,423.5,407.5z"/>
<path class="st17" d="M369.8,420.5h-186c-6.8,0-9.2,1-12.3-6.2l-69.9-132c0-6.8,5.6-12.4,12.3-12.4L279.3,241
	c6.8,0,10.2,2.5,14.4,10.3L378,408.1C378,414.9,376.6,420.5,369.8,420.5z"/>
<g>
	<path class="st18" d="M503,192c-0.4-2.1-0.2-4.4,0.4-6.5c0.6-2.1,1.6-4.1,2.9-5.9c1.3-1.8,2.7-3.5,4.3-4.9c1.6-1.4,3.4-2.7,5.4-3.6
		c-1.5,1.6-2.9,3.1-4.3,4.7c-1.3,1.6-2.6,3.2-3.8,4.9c-1.2,1.7-2.2,3.5-3,5.4C504.1,187.9,503.5,189.9,503,192z"/>
</g>
<g>
	<path class="st18" d="M513,347c-1-1.4-1.8-2.8-2.6-4.2c-0.4-0.7-0.8-1.4-1.2-2c-0.2-0.3-0.4-0.6-0.6-0.8c-0.2-0.2-0.4-0.4-0.8-0.6
		c-1.3-0.7-2.8-1.4-4.3-2.1c-1.5-0.7-3-1.4-4.4-2.3c1.7,0.2,3.3,0.5,4.9,0.9c1.6,0.4,3.2,0.9,4.8,1.7c0.4,0.2,0.9,0.5,1.2,0.9
		c0.4,0.4,0.6,0.8,0.9,1.1c0.5,0.8,0.8,1.6,1.1,2.4C512.5,343.6,512.9,345.3,513,347z"/>
</g>
<g>
	<path class="st18" d="M502,230c0.5-3.4,1.2-6.7,2.1-9.9c0.9-3.3,1.9-6.5,3.6-9.6c1.8-3,3.9-5.7,6.1-8.2c2.2-2.5,4.6-5,7.2-7.2
		c-1.9,2.8-4,5.5-5.9,8.2c-2,2.7-4,5.4-5.6,8.2c-0.8,1.4-1.4,2.9-2.1,4.4c-0.6,1.5-1.2,3.1-1.8,4.7C504.4,223.7,503.3,226.9,502,230
		z"/>
</g>
<g>
	<path class="st18" d="M509,339c-0.5-1.9-0.5-4-0.2-6c0.3-2,0.9-4,2-5.8l0.4-0.7c0.1-0.2,0.4-0.5,0.5-0.7c0.4-0.4,0.8-0.8,1.3-1.1
		c0.9-0.6,1.8-1.1,2.8-1.4c1.9-0.7,3.9-1.2,5.9-1.3c-1.8,1-3.5,1.8-5.2,2.8c-0.8,0.5-1.6,1-2.3,1.5c-0.3,0.3-0.7,0.6-0.9,0.9
		c-0.1,0.2-0.2,0.3-0.4,0.5l-0.4,0.6c-1,1.6-1.6,3.3-2.2,5.1C509.7,335.1,509.3,337,509,339z"/>
</g>
<g>
	<path class="st18" d="M505,317c0.2-2.2,0.7-4.3,1.4-6.3c0.3-1,0.8-2,1.2-3c0.3-0.5,0.5-1,0.9-1.5c0.3-0.5,0.9-1,1.3-1.3
		c1.8-1.3,3.8-2.3,5.9-2.9c2.1-0.6,4.3-0.9,6.4-0.8c-2,0.7-4,1.5-5.9,2.3c-1.9,0.9-3.7,1.8-5.3,3c-0.5,0.3-0.7,0.5-1,0.9
		c-0.3,0.4-0.5,0.8-0.8,1.2c-0.5,0.9-1,1.8-1.5,2.7C506.9,313.2,506,315.1,505,317z"/>
</g>
<g>
	<path class="st18" d="M503,295c0.9-2.2,2.1-4.3,3.3-6.3c0.6-1,1.3-2,2-3c0.7-1,1.5-1.9,2.5-2.8c1.9-1.6,4-2.8,6-4
		c2.1-1.2,4.2-2.2,6.5-3.1c-1.8,1.6-3.7,3-5.6,4.4l-2.8,2.1c-0.9,0.7-1.9,1.4-2.7,2.1c-0.8,0.7-1.5,1.6-2.3,2.4
		c-0.8,0.9-1.5,1.8-2.2,2.7C506.1,291.4,504.6,293.2,503,295z"/>
</g>
<g>
	<path class="st18" d="M503,275c1.1-2.7,2.5-5.2,3.8-7.7c0.7-1.3,1.4-2.5,2.1-3.8c0.7-1.2,1.5-2.5,2.3-3.7c0.4-0.6,0.8-1.2,1.3-1.8
		c0.5-0.6,1-1.1,1.5-1.7c1-1.1,2.1-2,3.1-3c2.2-1.9,4.4-3.7,6.9-5.3c-1.8,2.3-3.8,4.4-5.7,6.5c-1,1-1.9,2.1-2.9,3.1
		c-1,1.1-1.7,2.1-2.5,3.3c-1.6,2.4-3.2,4.8-4.8,7.1C506.5,270.4,504.8,272.7,503,275z"/>
</g>
<g>
	<path class="st18" d="M504,254c0.3-3,0.8-6,1.4-9c0.6-3,1.3-5.9,2.4-8.8c0.6-1.5,1.4-2.9,2.5-4.1c1-1.2,2.2-2.3,3.5-3.2
		c2.5-1.8,5.3-3.2,8.2-4c-2.6,1.6-5.1,3.3-7.2,5.2c-1.1,1-2.1,2-3,3.1c-0.9,1.1-1.6,2.3-2.1,3.6c-1,2.7-1.9,5.6-2.8,8.5
		C506,248.3,505.1,251.2,504,254z"/>
</g>
<path id="carmin" class="st19" d="M520.5,349.5c0,0-3.9,0.6-5,1c-1.4,0.5-4.5,0.9-6,1c-1,0.1-4,1-4,1"/>
<g>
	<path class="st18" d="M511,327c-1.1-1.7-2.2-3.3-3.5-4.8c-0.6-0.7-1.3-1.4-2-2c-0.7-0.6-1.5-1.1-2.3-1.6c-1.7-0.9-3.4-1.7-5.3-2.2
		c-1.9-0.5-3.8-0.7-5.8-0.5c1.8-1,4-1.2,6.1-1c2.1,0.2,4.1,0.9,6,1.9c1.9,1,3.5,2.5,4.7,4.3C509.9,323,510.8,324.9,511,327z"/>
</g>
<g>
	<path class="st18" d="M511,304c-1.3-1.2-2.5-2.5-3.7-3.6c-0.6-0.6-1.2-1.2-1.8-1.7c-0.3-0.3-0.6-0.5-0.9-0.7
		c-0.2-0.1-0.3-0.2-0.4-0.3l-0.5-0.2c-1.5-0.6-3.2-1.1-4.8-1.7c-1.6-0.6-3.3-1.1-4.9-1.8c1.8,0,3.5,0.2,5.2,0.4
		c1.7,0.3,3.4,0.6,5.2,1.2c0.2,0.1,0.4,0.2,0.7,0.3c0.2,0.1,0.5,0.3,0.7,0.4c0.4,0.3,0.8,0.6,1.1,0.9c0.7,0.6,1.2,1.3,1.8,2
		C509.7,300.7,510.5,302.3,511,304z"/>
</g>
<g>
	<path class="st18" d="M511,283c-1.7-0.7-3.2-1.7-4.6-2.8c-1.4-1.1-2.8-2.2-4-3.5c-1-1-2.7-1.7-4.3-2.3c-1.6-0.6-3.3-1.1-5.1-1.6
		c1.8-0.1,3.6,0,5.4,0.3c1.8,0.4,3.6,0.8,5.3,2.1c1.3,1.1,2.7,2.3,3.9,3.5C508.8,280.1,510,281.5,511,283z"/>
</g>
<g>
	<path class="st18" d="M510,262c-1.3-1.1-2.5-2.3-3.6-3.5c-0.6-0.6-1.1-1.2-1.7-1.7c-0.3-0.3-0.6-0.5-0.9-0.7
		c-0.3-0.2-0.5-0.4-0.9-0.6c-1.4-0.7-2.9-1.4-4.4-2.1c-1.5-0.7-3-1.5-4.4-2.4c1.7,0.1,3.4,0.5,5,1c1.6,0.5,3.2,1,4.8,1.8
		c0.4,0.2,0.9,0.5,1.2,0.8c0.4,0.3,0.7,0.6,1,0.9c0.6,0.7,1.1,1.3,1.6,2C508.5,258.9,509.4,260.4,510,262z"/>
</g>
<g>
	<path class="st18" d="M509,239c-1.4-1-2.6-2.2-3.8-3.4c-1.2-1.2-2.4-2.5-3.5-3.5c-1.2-1-2.5-1.8-4-2.5c-1.5-0.7-3-1.2-4.7-1.7
		c1.7-0.4,3.5-0.2,5.2,0.2c1.7,0.4,3.4,1.2,4.8,2.4c1.4,1.2,2.4,2.6,3.4,4C507.4,236,508.3,237.4,509,239z"/>
</g>
<g>
	<path class="st18" d="M506,215c-1.3-0.7-2.5-1.4-3.6-2.1c-1.2-0.7-2.3-1.3-3.5-1.9c-1-0.5-2.3-0.6-3.7-0.7
		c-0.7-0.1-1.4-0.2-2.1-0.3c-0.7-0.2-1.5-0.4-2-0.9c0.7,0.1,1.4,0.1,2.1,0c0.7-0.1,1.4-0.2,2.1-0.2c0.7-0.1,1.4-0.1,2.2-0.1
		c0.4,0,0.8,0,1.2,0.1c0.4,0.1,0.9,0.2,1.2,0.4c1.4,0.6,2.6,1.4,3.7,2.4C504.4,212.6,505.4,213.7,506,215z"/>
</g>
<g>
	<path class="st18" d="M513,204c-1.6-1.9-3.2-3.8-4.8-5.6c-1.7-1.8-3.4-3.5-5.4-4.8c-1-0.7-1.9-1.1-3.1-1.5
		c-1.1-0.4-2.3-0.7-3.5-1.1c-2.4-0.7-4.8-1.3-7.2-2.1c2.5,0,5,0.2,7.5,0.6c1.2,0.2,2.5,0.5,3.7,0.8c1.2,0.3,2.6,0.9,3.7,1.6
		c2.2,1.5,4,3.4,5.5,5.4C510.8,199.4,512.1,201.6,513,204z"/>
</g>
<g>
	<path class="st18" d="M506,180c-1.7-1.7-3.2-3.4-4.8-5c-1.6-1.6-3.2-3.3-4.9-4.6c-1.7-1.3-3.8-2.4-5.8-3.3
		c-2.1-0.9-4.2-1.6-6.5-2.2c2.3-0.3,4.7,0,7,0.7c2.3,0.7,4.5,1.7,6.5,3.1c1.9,1.5,3.5,3.3,4.9,5.2C503.8,175.9,505,177.9,506,180z"
		/>
</g>
<g>
	<path class="st18" d="M498,171c-0.4-2.1-0.2-4.4,0.4-6.5c0.6-2.1,1.6-4.1,2.9-5.9c1.3-1.8,2.7-3.5,4.3-4.9c1.6-1.4,3.4-2.7,5.4-3.6
		c-1.5,1.6-2.9,3.1-4.3,4.7c-1.3,1.6-2.6,3.2-3.8,4.9c-1.2,1.7-2.2,3.5-3,5.4C499.1,166.9,498.5,168.9,498,171z"/>
</g>
<g class="st20">
	<path class="st21" d="M469.5,274.5l-1-26l9.2-8.8l7.8-8.2c0,0-9.5,17.2-12,22C470.6,259.2,470.5,266.3,469.5,274.5z"/>
	<path class="st21" d="M469.5,274.5c-0.2-4.2-0.4-8.5-0.6-12.9c-0.3-4.3-0.5-8.8-0.7-13.1l0-0.1l0.1-0.1c1.4-1.4,2.8-2.8,4.3-4.2
		l4.3-4.2c1.4-1.4,2.8-2.9,4.2-4.3l4.1-4.4l2.7-2.8l-1.9,3.4c-3.8,6.8-7.6,13.6-11.2,20.4c-0.5,0.9-0.9,1.7-1.3,2.6
		c-0.4,0.9-0.7,1.8-1,2.7c-0.6,1.8-1,3.7-1.3,5.6C470.4,266.8,470.1,270.7,469.5,274.5z M469.5,274.5c0.4-3.9,0.5-7.7,1-11.6
		c0.3-1.9,0.6-3.9,1.2-5.7c0.3-0.9,0.6-1.9,1-2.8c0.4-0.9,0.8-1.8,1.3-2.6c3.6-6.9,7.4-13.7,11.1-20.5l0.8,0.6l-4.2,4.3
		c-1.4,1.4-2.8,2.9-4.2,4.3l-4.4,4.1c-1.4,1.4-2.9,2.7-4.4,4.1l0.1-0.3c0.1,4.3,0.2,8.5,0.3,12.9
		C469.2,265.7,469.3,270.1,469.5,274.5z"/>
</g>
<path class="st13" d="M493.5,158.5c0,0,7.2,27.4,2,42c-2.3,6.6-13.4,27.4-16,34c-5.1,12.8-18.2,37.3-17,51c1.4,17,24,56.4,17,72
	C475.8,365.7,453,386,453,386"/>
<path class="st0" d="M473,123.8c0,0-11.4,5.3-32.5-7.3c-20.6-12.2-25-21-25-21s20-6,32-3C454.4,94.2,473,123.8,473,123.8z"/>
<path class="st1" d="M471.5,122.5c0,0-9,2-30-7c-7.5-3.2-26-20-26-20s23-6,36,0C459.5,99.2,471.5,122.5,471.5,122.5z"/>
<path class="st12" d="M495.5,159.5c0,0,7.2,27.4,2,42c-1.1,3.1-17,46.1-19.5,79.5c-3,38.8,7.3,69.1,3.5,77.5
	C477.8,366.7,455,387,455,387"/>
<ellipse class="st0" cx="489.5" cy="132" rx="19" ry="32.5"/>
<ellipse class="st15" cx="488.5" cy="131" rx="19" ry="32.5"/>
<path class="st0" d="M523,131c0,17.4-9.3,31.5-20.7,31.5s-24.8,0-25.8-32c-0.9-30.1,14.3-31,25.8-31S523,113.6,523,131z"/>
<path class="st14" d="M523.5,130c0,17.4-9.2,31.5-20.5,31.5s-24.5,0-25.5-32c-0.9-30.1,14.2-31,25.5-31S523.5,112.6,523.5,130z"/>
<path class="st0" d="M523.5,130.5c0,16.6-6.3,30-14,30s-26-3-26-30c0-31.1,18.3-30,26-30S523.5,113.9,523.5,130.5z"/>
<path class="st10" d="M524.5,129.5c0,16.6-6.3,30-14,30s-26-3-26-30c0-31.1,18.3-30,26-30S524.5,112.9,524.5,129.5z"/>
<path class="st0" d="M519.5,130.5c0,13.8-3.4,25-7.5,25s-13.5-3-13.5-26c0-21,9.4-24,13.5-24S519.5,116.7,519.5,130.5z"/>
<path class="st22" d="M521.5,130.5c0,13.8-3.4,25-7.5,25s-13.5-3-13.5-26c0-21,9.4-24,13.5-24S521.5,116.7,521.5,130.5z"/>
<g class="st23">
	<path d="M482.7,162.5c0.5,3.8,0.4,7.7,0.1,11.6c-0.3,3.9-1,7.7-2,11.5c-0.9,3.8-2.3,7.5-3.8,11.1c-0.9,1.8-1.6,3.6-2.6,5.3
		l-1.4,2.6l-1.6,2.5c-2.1,3.3-4.7,6.4-7.4,9.4c-2.8,2.8-6.1,5.3-9.6,7.2c-3.5,1.9-7.3,3.4-11.1,4.3c-3.8,0.9-7.8,1.4-11.7,1l0-0.5
		c7.4-2.1,14.2-5.1,20.3-9.1c3-2,6-4.2,8.7-6.5c0.7-0.6,1.3-1.2,2-1.9c0.7-0.6,1.4-1.2,1.9-1.9c1.2-1.4,2.5-2.7,3.5-4.2
		c4.4-6,8-12.6,10.4-19.8c2.4-7.1,3.8-14.7,3.8-22.3L482.7,162.5z"/>
</g>
<g class="st23">
	<polygon points="408.5,397.5 397.5,400.5 387.5,362.5 419.5,293.5 403.5,275.5 425.5,292.5 413.5,333.5 395.5,363.5 	"/>
	<path d="M408.5,397.5l-11,3.1l-0.1,0l0-0.1l-10.1-38l0-0.1l0-0.1l31.8-69.1l0.1,0.4l-16-18l0.6-0.6l22,16.9l0.3,0.2l-0.1,0.3
		l-12,41l0,0.1l0,0.1l-18.1,29.9l0-0.3l6.4,17.1L408.5,397.5z M408.5,397.5l-6.7-17l-6.6-16.9l-0.1-0.1l0.1-0.1l17.9-30.1l-0.1,0.1
		l12-41l0.2,0.5l-22-17.1l0.6-0.6l16,18l0.2,0.2l-0.1,0.2l-32.2,68.9l0-0.1l9.9,38l-0.1-0.1L408.5,397.5z"/>
</g>
<g id="lineas_carmin">
	<path class="st24" d="M505.5,349.5c0.7,2,1.4,4,2.1,6l-0.2-0.1l2-1l-0.1,0.2c-0.7-2-1.4-4-2-6l-0.1-0.2l0.2-0.1l2-1l0.2-0.1
		l0.1,0.2l1.9,6l-0.1-0.1l1.7,0.1l-0.1,0.1c-0.5-2.1-1-4.1-1.5-6.1l0-0.1l0.1,0l2,0l0.1,0l0,0.1l1.5,6.1l-0.2-0.2l1.8,0l-0.2,0.3
		l-1.1-6.2l-0.2-0.9l0.6,0.7l4.5,5.1l-0.4,0.2l-0.9-6l0.3,0.1l-1.5,0.9l0.1-0.2c0.3,2.1,0.6,4.2,0.9,6.3l0,0
		c-0.4-2.1-0.8-4.1-1.2-6.2l0-0.1l0.1-0.1l1.5-0.9l0.2-0.1l0,0.2l1.1,6l0.2,0.9l-0.6-0.7l-4.5-5.1l0.5-0.2l1,6.2l0,0.3l-0.3,0
		l-1.8-0.1l-0.2,0l0-0.2l-1.4-6.2l0.1,0.1l-2,0l0.1-0.1c0.5,2.1,0.9,4.1,1.4,6.2l0,0.1l-0.1,0l-1.7-0.1l-0.1,0l0-0.1l-2.1-6l0.3,0.1
		l-2,1l0.1-0.3c0.7,2,1.3,4,2,6l0.1,0.2l-0.1,0.1l-2,1l-0.2,0.1l-0.1-0.2C506.7,353.5,506.1,351.5,505.5,349.5L505.5,349.5z"/>
</g>
<path class="st25" d="M520.5,130.5c0,13.8-6.9,25-6.3,25s7.3-3,7.3-26c0-21-6.6-24-7.3-24S520.5,116.7,520.5,130.5z"/>
<g class="st20">
	<polygon class="st21" points="369.5,257.5 334.5,314.5 367.5,254.5 377.5,259.5 	"/>
	<path class="st21" d="M369.5,257.5l-34.9,57.1l-0.2-0.1l33.1-60l0,0l0,0l10,5l0.1,0.1l-0.1,0L369.5,257.5z M369.5,257.5l8,2l0,0
		l-10-5l0,0l-32.9,60l-0.2-0.1L369.5,257.5z"/>
</g>
<g class="st20">
	<path class="st21" d="M541.5,352.5l-10-51l10-52l6-21c0,0-5.9,43.5-7,58C539.2,304.1,539.3,302,541.5,352.5z"/>
	<path class="st21" d="M541.5,352.5c-1.7-8.4-3.4-16.9-5.1-25.3c-1.8-8.5-3.5-17.1-5.2-25.6l0-0.1l0-0.1l9.9-52l0,0l0,0l6-21l1,0.2
		c-1.4,10.3-2.8,20.6-4.1,30.8c-0.7,5.1-1.3,10.3-1.9,15.4c-0.6,5.2-1.1,10.3-1.5,15.5c-0.4,5.2-0.7,10.3-0.6,15.5
		c0,5.2,0.2,10.4,0.4,15.5L541.5,352.5z M541.5,352.5l-1.6-31.1c-0.2-5.2-0.4-10.4-0.5-15.6c-0.1-5.2,0.1-10.4,0.5-15.6
		c0.3-5.2,0.8-10.4,1.4-15.5c0.6-5.2,1.2-10.3,1.8-15.5c1.3-10.3,2.6-20.6,3.9-30.9l1,0.2l-6,21l0,0l-10.1,52l0-0.1
		c1.6,8.5,3.3,16.9,4.8,25.4C538.2,335.4,539.8,343.9,541.5,352.5z"/>
</g>
<g class="st20">
	<polygon class="st21" points="527.3,361 489.5,377.2 440,394.3 434.7,392.2 	"/>
	<path class="st21" d="M527.3,361c-6.2,2.7-12.4,5.4-18.7,8.2c-6.2,2.8-12.6,5.6-18.9,8.3l0,0l0,0l-24.7,8.7l-24.8,8.6l-0.2,0.1
		l-0.2-0.1l-5.4-2.1l-1.3-0.5l1.3-0.4l23.3-7.8l23.3-7.7l23.2-7.6L527.3,361z M527.3,361L504,369l-23.1,8l-23,7.9l-23,7.8l0-0.9
		l5.3,2.1l-0.3,0l24.8-8.5l24.8-8.5l0,0c6.3-2.6,12.5-5.3,18.8-7.8C514.6,366.4,521,363.7,527.3,361z"/>
</g>
<g class="st20">
	<path class="st21" d="M339.3,314.7c0,0,12.1-8.8,16.8-10.1c4.8-1.4,20-0.5,20-0.5l8.3,0.8c0,0-16.6,0.5-21.9,1.5
		C356.1,307.5,356.9,308.4,339.3,314.7z"/>
	<path class="st21" d="M339.3,314.7c3.2-2.4,6.5-4.7,9.9-6.9c1.7-1.1,3.4-2.1,5.3-2.9c0.9-0.4,1.9-0.8,2.9-0.9c1-0.2,2-0.3,3-0.4
		c4-0.3,8-0.2,12.1-0.1c2,0.1,4,0.2,6,0.4l6,0.5l0,1c-3.9,0.1-7.8,0.3-11.6,0.5c-1.9,0.1-3.9,0.2-5.8,0.4c-1.9,0.2-3.8,0.3-5.7,0.7
		c-1.9,0.4-3.7,1-5.5,1.7c-1.8,0.7-3.6,1.5-5.4,2.1C346.6,312.2,342.9,313.5,339.3,314.7z M339.3,314.7c3.6-1.4,7.2-2.8,10.8-4.3
		l5.4-2.3c1.8-0.8,3.7-1.5,5.6-1.9c1.9-0.5,3.9-0.7,5.8-0.9c1.9-0.2,3.9-0.3,5.8-0.4c3.9-0.2,7.8-0.4,11.7-0.6l0,1l-6-0.6
		c-2-0.2-4-0.3-6-0.4c-4-0.2-8-0.2-12,0c-2,0.1-4,0.2-5.7,1.1c-1.8,0.8-3.6,1.8-5.3,2.8C345.9,310.2,342.6,312.5,339.3,314.7z"/>
</g>
<g class="st20">
	<path class="st21" d="M347.6,298.4l5.9-4.9l19,0.4l5.6,2.1c0,0-11-1.1-14.6-1C359.2,295.1,359.5,295.1,347.6,298.4z"/>
	<path class="st21" d="M347.6,298.4c0.9-0.8,1.8-1.6,2.7-2.5c0.9-0.9,1.9-1.8,2.9-2.7l0.1-0.1l0.1,0c3.2,0,6.3,0.1,9.5,0.1l9.5,0.2
		l0.1,0l0.1,0l5.6,2.1l3.7,1.4l-3.9-0.4c-2.6-0.3-5.1-0.5-7.7-0.7c-2.6-0.2-5.1-0.4-7.7-0.4c-1.3,0-2.5,0.1-3.8,0.3
		c-1.3,0.2-2.5,0.5-3.8,0.8L347.6,298.4z M347.6,298.4c2.5-0.8,4.9-1.5,7.4-2.3c1.2-0.4,2.5-0.7,3.8-1c1.3-0.3,2.6-0.4,3.9-0.5
		c2.6-0.2,5.2,0.1,7.8,0.2c2.6,0.2,5.1,0.4,7.7,0.6l-0.2,1l-5.6-2.1l0.2,0l-9.5-0.3c-3.2-0.1-6.3-0.2-9.5-0.3l0.2-0.1
		c-1,0.8-1.9,1.5-3,2.2C349.7,296.7,348.7,297.5,347.6,298.4z"/>
</g>
<g class="st20">
	<path class="st21" d="M535.5,359.5l25,4l8.5,9l5.4,6.4c0,0-12.8-10.4-17.2-13.4C551.8,361.9,543.5,361.5,535.5,359.5z"/>
	<path class="st21" d="M535.5,359.5c4.1,0.6,8.2,1.3,12.4,1.8c4.2,0.6,8.4,1.2,12.7,1.8l0.1,0l0.1,0.1c2.4,2.5,4.8,4.9,7.2,7.5
		c1.2,1.2,2.3,2.6,3.5,3.9l3.4,4l-0.7,0.7c-2.9-2.3-5.8-4.7-8.7-7c-2.9-2.3-5.8-4.6-8.8-6.7c-3-2-6.7-2.9-10.3-3.7
		C542.7,361.1,539.1,360.5,535.5,359.5z M535.5,359.5c3.6,0.8,7.3,1.3,10.9,1.9c3.6,0.7,7.3,1.5,10.6,3.5c1.6,1,3.1,2.1,4.5,3.2
		l4.4,3.4c2.9,2.3,5.8,4.6,8.7,6.9l-0.7,0.7l-3.3-4c-1.1-1.3-2.2-2.7-3.4-3.9c-2.4-2.5-4.7-5-7-7.6l0.2,0.1
		c-4.1-0.7-8.2-1.4-12.3-2.2C544,360.9,539.8,360.2,535.5,359.5z"/>
</g>
<g class="st20">
	<path class="st21" d="M528.5,360.5c0,0,13.6,1.3,18,3c4.7,1.8,15.5,10,15.5,10l5.4,6.4c0,0-12.8-10.4-17.2-13.4
		C544.8,362.9,536.5,362.5,528.5,360.5z"/>
	<path class="st21" d="M528.5,360.5c3.1,0.2,6.1,0.5,9.1,0.9c1.5,0.2,3,0.4,4.6,0.7c1.5,0.3,3,0.6,4.5,1.1c1.5,0.6,2.8,1.3,4.2,2.1
		c1.3,0.8,2.6,1.6,3.9,2.5c2.6,1.7,5.1,3.5,7.5,5.3l0,0l0,0l5.4,6.4l-0.7,0.7c-2.9-2.3-5.8-4.7-8.7-7c-2.9-2.3-5.8-4.6-8.8-6.7
		c-3-2-6.7-2.9-10.3-3.7C535.7,362.1,532.1,361.5,528.5,360.5z M528.5,360.5c3.6,0.8,7.3,1.3,10.9,1.9c3.6,0.7,7.3,1.5,10.6,3.5
		c1.6,1,3.1,2.1,4.5,3.2l4.4,3.4c2.9,2.3,5.8,4.6,8.7,6.9l-0.7,0.7l-5.4-6.4l0.1,0.1c-2.4-1.8-4.9-3.6-7.4-5.4
		c-2.5-1.7-5.1-3.5-7.8-4.6c-2.8-1-5.9-1.5-8.9-2C534.6,361.3,531.5,360.9,528.5,360.5z"/>
</g>
<g class="st20">
	<path class="st21" d="M558.5,198.5c0,0,13.6,1.3,18,3c4.7,1.8,14,7,14,7l4,7c0,0-10.5-5-15-8C574.2,203.9,566.5,200.5,558.5,198.5z
		"/>
	<path class="st21" d="M558.5,198.5c2.8,0.2,5.6,0.5,8.4,0.8c2.8,0.4,5.6,0.7,8.4,1.5c1.4,0.4,2.7,0.9,4,1.5
		c1.3,0.6,2.6,1.2,3.9,1.8c2.5,1.3,5,2.6,7.5,4l0.1,0.1l0.1,0.1l4,7l0.8,1.4l-1.4-0.7c-3-1.5-6-3-8.9-4.5c-1.5-0.8-2.9-1.6-4.4-2.5
		c-1.4-0.9-2.8-1.9-4.2-2.7c-2.8-1.7-5.8-3.2-8.9-4.4C564.9,200.5,561.7,199.4,558.5,198.5z M558.5,198.5c3.3,0.7,6.5,1.7,9.6,2.9
		c3.1,1.2,6.2,2.6,9.1,4.2c1.5,0.8,2.8,1.8,4.3,2.6c1.4,0.8,2.9,1.6,4.3,2.4c2.9,1.5,5.9,3,8.9,4.4l-0.6,0.7l-4-7l0.2,0.2
		c-2.5-1.4-4.9-2.7-7.4-4c-1.3-0.6-2.5-1.3-3.8-1.9c-1.3-0.6-2.5-1.2-3.9-1.6c-2.7-0.8-5.5-1.2-8.3-1.7
		C564.1,199.3,561.3,198.9,558.5,198.5z"/>
</g>
<g class="st20">
	<path class="st21" d="M441.5,272.5l3-15c0,0-6-4.8-8-8c-1.7-2.7-7-19-7-19s5.3,20.3,8,25C441.5,262.5,440.5,264.3,441.5,272.5z"/>
	<path class="st21" d="M441.5,272.5c0.5-2.6,1-5.1,1.4-7.7c0.4-2.5,0.8-4.9,1.3-7.4l0.1,0.3c-2.1-1.6-4.1-3.4-5.9-5.3
		c-0.9-1-1.8-2-2.5-3.2c-0.6-1.2-1.1-2.4-1.6-3.7c-1.9-4.9-3.6-9.9-5.2-14.9l1-0.3c0.9,3.5,1.9,7.1,2.9,10.6c1,3.5,2.1,7,3.3,10.4
		c0.3,0.9,0.6,1.7,1,2.5c0.3,0.8,0.8,1.6,1.2,2.4c0.9,1.6,1.6,3.3,2.1,5.2c0.5,1.8,0.6,3.7,0.7,5.5
		C441.2,268.9,441.3,270.7,441.5,272.5z M441.5,272.5c-0.3-1.8-0.5-3.6-0.7-5.5c-0.2-1.8-0.4-3.6-0.9-5.4c-0.5-1.7-1.3-3.4-2.2-5
		c-0.4-0.8-0.9-1.6-1.3-2.5c-0.4-0.8-0.7-1.7-1-2.6c-1.3-3.5-2.3-7-3.4-10.5c-1-3.5-2-7-3-10.6l1-0.3c1.6,5,3.3,10,5.2,14.9
		c0.5,1.2,1,2.5,1.5,3.6c0.6,1.1,1.4,2.1,2.3,3c1.8,1.9,3.7,3.7,5.7,5.4l0.2,0.1l0,0.2c-0.6,2.5-1.1,5.1-1.7,7.6
		C442.5,267.6,442,270.1,441.5,272.5z"/>
</g>
<path class="st0" d="M378.4,424.5H183.9c-7.1,0-9.6,1-12.9-6.2L98,286.3c0-6.8,5.8-12.4,12.9-12.4l173-28.9c7.1,0,10.6,2.5,15,10.3
	L387,412.1C387,418.9,385.5,424.5,378.4,424.5z"/>
<g class="st26">
	<path class="st21" d="M261.5,252.5c0,0,13.4-2.9,18-2c5,1,7,2,10,6c1.2,1.6,7,12,7,12s-9.5-9-14-12
		C277.2,252.9,270.5,253.5,261.5,252.5z"/>
	<path class="st21" d="M261.5,252.5c3.6-0.9,7.2-1.6,10.8-2.1c1.8-0.2,3.7-0.4,5.5-0.4c0.9,0,1.9,0.2,2.8,0.4
		c0.9,0.2,1.8,0.4,2.7,0.7c1.8,0.6,3.5,1.7,4.8,3.1c0.7,0.7,1.2,1.4,1.8,2.2c0.6,0.8,1,1.6,1.5,2.4c1.9,3.2,3.7,6.4,5.5,9.6l1.6,2.8
		l-2.4-2.2c-2.4-2.3-4.9-4.5-7.4-6.7c-1.3-1.1-2.5-2.2-3.8-3.2c-1.3-1-2.6-2.1-4-2.9c-2.9-1.6-6.2-2.1-9.5-2.5
		C268.2,253.2,264.8,253,261.5,252.5z M261.5,252.5c3.3,0.3,6.7,0.4,10,0.6c3.3,0.3,6.7,0.7,9.8,2.3c1.5,0.8,2.9,1.8,4.2,2.9
		c1.3,1,2.6,2.1,3.9,3.2c2.5,2.2,5,4.4,7.5,6.7l-0.8,0.6c-1.8-3.2-3.6-6.4-5.4-9.6c-0.5-0.8-0.9-1.6-1.4-2.3
		c-0.5-0.7-1.1-1.4-1.7-2.1c-1.2-1.3-2.7-2.3-4.4-2.9c-0.8-0.3-1.7-0.6-2.6-0.8c-0.9-0.2-1.7-0.4-2.7-0.4c-1.8-0.1-3.6,0.1-5.5,0.2
		C268.7,251.2,265.1,251.9,261.5,252.5z"/>
</g>
<g class="st20">
	<path class="st21" d="M382.5,203.5c0,0,2.5-3.6,6-7c3.6-3.5,13-9,13-9l9-5c0,0-5.5,2.4-11,6c-3.3,2.1-6.3,4.9-9,7
		C385,199.7,383.8,202.2,382.5,203.5z"/>
	<path class="st21" d="M382.5,203.5c1.6-2.6,3.5-4.8,5.6-6.9c2.2-2.1,4.6-3.7,7.1-5.3c2.5-1.6,5-3.2,7.6-4.6l7.7-4.3l0.1,0.3
		c-2.7,1.3-5.2,2.6-7.8,4.1c-1.3,0.7-2.5,1.5-3.7,2.3c-1.2,0.8-2.4,1.7-3.5,2.6l-3.4,2.8l-3.5,2.7c-1.1,0.9-2.2,1.9-3.2,3
		C384.4,201.3,383.6,202.5,382.5,203.5z M382.5,203.5c0.9-1.1,1.7-2.4,2.7-3.5c1-1.1,2-2.1,3.1-3.1c1.1-1,2.3-1.8,3.4-2.8l3.4-2.8
		c1.2-0.9,2.3-1.8,3.6-2.6c1.2-0.8,2.5-1.6,3.8-2.3c2.6-1.5,5.2-2.8,7.9-4l0.1,0.3l-7.8,4.3c-2.6,1.4-5.1,3-7.5,4.7
		c-1.2,0.8-2.4,1.7-3.6,2.6c-1.2,0.9-2.3,1.8-3.4,2.8C386.3,199,384.4,201.2,382.5,203.5z"/>
</g>
<g class="st20">
	<path class="st21" d="M367.5,208.5c0,0,4.4-13.9,8-22c0.4-0.8,2-3,5-5c4.2-2.8,12-6,12-6l13-3c0,0-20,6-21,7c-1.6,1.6-7,1-10,7
		C373.5,188.5,370.7,203.2,367.5,208.5z"/>
	<path class="st21" d="M367.5,208.5c1.1-3.6,2.2-7,3.4-10.5c1.2-3.5,2.5-6.9,3.9-10.3l0.5-1.3c0.2-0.4,0.5-0.8,0.7-1.2
		c0.6-0.7,1.2-1.4,1.9-2c1.4-1.3,2.9-2.3,4.5-3.2c3.2-1.8,6.6-3.2,10-4.7l0,0l0,0l13-3.1l0.1,0.3c-4.6,1.4-9.2,2.9-13.8,4.4
		c-2.3,0.8-4.6,1.5-6.8,2.5c-0.1,0.1-0.2,0.1-0.3,0.2c-0.1,0.1-0.3,0.2-0.4,0.3c-0.3,0.2-0.6,0.3-0.9,0.4c-0.6,0.2-1.2,0.4-1.7,0.6
		c-1.1,0.4-2.2,0.8-3.3,1.4c-1,0.6-1.9,1.4-2.6,2.3c-0.7,0.9-1.3,2-1.6,3.1c-0.7,2.3-1.2,4.7-1.9,7c-0.6,2.3-1.3,4.7-2,7
		C369.5,204.1,368.8,206.4,367.5,208.5z M367.5,208.5c1.1-2.1,1.9-4.4,2.6-6.7c0.7-2.3,1.3-4.6,1.9-7c0.6-2.3,1.1-4.7,1.8-7
		c0.3-1.2,0.9-2.3,1.6-3.3c0.7-1,1.7-1.8,2.7-2.5c1-0.7,2.2-1.1,3.4-1.5c0.6-0.2,1.2-0.4,1.7-0.6c0.3-0.1,0.5-0.2,0.8-0.4
		c0.1-0.1,0.2-0.2,0.3-0.2c0.2-0.1,0.3-0.2,0.5-0.3c2.3-1,4.5-1.7,6.8-2.5c4.6-1.5,9.2-2.9,13.9-4.2l0.1,0.3l-13,2.9l0,0
		c-3.4,1.4-6.7,3-9.9,4.8c-1.6,0.9-3.1,1.9-4.5,3.1c-0.7,0.6-1.3,1.3-1.9,2c-0.3,0.4-0.5,0.7-0.7,1.1l-0.5,1.3
		c-1.4,3.4-2.7,6.8-4,10.2C369.9,201.6,368.7,205.1,367.5,208.5z"/>
</g>
<g class="st20">
	<path class="st21" d="M370.1,182.2c-0.6-0.3,8.8-6.2,12.5-9.7c3.7-3.4,9.4-9,9.4-9l5.9-3.8c0,0-5.1,3.1-9.6,7.5
		c-2.3,2.2-5.6,4.5-6.7,5.4C374.9,178,371.9,178.1,370.1,182.2z"/>
	<path class="st21" d="M370.1,182.2c-0.1-0.1,0.1-0.3,0.2-0.4c0.1-0.1,0.2-0.2,0.3-0.3l0.7-0.6l1.4-1.1l2.9-2.1
		c1.9-1.4,3.9-2.8,5.7-4.4c1.8-1.6,3.5-3.3,5.3-4.9l5.2-5l0,0l0,0l5.9-3.9l0.3,0.4c-2.5,1.6-4.9,3.4-7.2,5.3c-1.2,1-2.2,2-3.3,3
		c-1.1,1-2.3,1.9-3.5,2.8c-1.2,0.9-2.4,1.8-3.6,2.7c-1.2,0.9-2.5,1.7-3.7,2.5c-1.3,0.8-2.6,1.6-3.8,2.4c-0.6,0.5-1.1,1-1.6,1.5
		C370.8,180.9,370.4,181.6,370.1,182.2z M370.1,182.2c0.3-0.7,0.7-1.4,1.1-2c0.5-0.6,1-1.1,1.6-1.6c1.2-0.9,2.5-1.7,3.7-2.6
		c1.2-0.8,2.5-1.7,3.7-2.6c1.2-0.9,2.4-1.9,3.6-2.7c1.2-0.9,2.4-1.8,3.5-2.8c1.1-1,2.2-2.1,3.3-3c2.3-2,4.7-3.8,7.3-5.4l0.3,0.4
		l-5.9,3.8l0,0l-5.2,5c-1.8,1.6-3.5,3.3-5.3,4.9c-1.9,1.5-3.8,2.9-5.8,4.3l-3,2.1l-1.5,1l-0.7,0.5c-0.1,0.1-0.2,0.2-0.3,0.3
		C370.2,182,370,182.1,370.1,182.2z"/>
</g>
<g class="st20">
	<path class="st21" d="M374.1,173.9l-3.6,4.6l9.3-16.8l5.4-6.4c0,0-4.6,5.2-6.9,10.2C375.6,171.3,375.5,170.5,374.1,173.9z"/>
	<path class="st21" d="M374.1,173.9c-0.5,0.8-1.1,1.6-1.7,2.4c-0.6,0.8-1.2,1.6-1.8,2.3l-0.4-0.2c3.1-5.6,6.3-11.1,9.4-16.7l0,0l0,0
		l5.4-6.4l0.2,0.2c-1.2,1.4-2.2,2.8-3.3,4.3c-1,1.5-2,3-2.8,4.6c-0.8,1.6-1.5,3.3-2.5,4.8c-0.4,0.8-0.9,1.6-1.4,2.3
		C374.9,172.3,374.5,173.1,374.1,173.9z M374.1,173.9c0.3-0.8,0.6-1.7,1.1-2.5c0.4-0.8,0.9-1.6,1.3-2.4c0.8-1.6,1.5-3.3,2.4-4.9
		c1.7-3.2,4-6.1,6.4-8.8l0.2,0.2l-5.5,6.3l0,0c-3.1,5.6-6.1,11.3-9.2,16.9l-0.4-0.2c0.6-0.8,1.2-1.5,1.8-2.3
		C372.8,175.4,373.4,174.6,374.1,173.9z"/>
</g>
<g class="st26">
	<path class="st21" d="M374.1,407.2c0,0,3.8-2.1,8.5-3.6c4.8-1.5,15.7-2.2,15.7-2.2l12.2-2.9c0,0-7.9,2.2-14.5,2.9
		c-3.9,0.4-7.8,1.6-11.2,2.2C378,404.9,375.8,406.6,374.1,407.2z"/>
	<path class="st21" d="M374,407.2C374,407.2,374.1,407.1,374,407.2l0.1-0.1l0.1-0.1l0.2-0.1l0.3-0.2l0.7-0.4
		c0.5-0.3,0.9-0.5,1.4-0.8c0.9-0.5,1.9-0.9,2.9-1.3c1-0.4,2-0.8,3-1.1c1-0.3,2.1-0.5,3.1-0.7c2.1-0.3,4.2-0.5,6.3-0.7l6.3-0.5l0,0
		c4.1-1,8.1-2,12.2-3.1l0.1,0.6c-3,0.9-6.1,1.7-9.1,2.3c-1.5,0.3-3.1,0.6-4.7,0.8c-1.6,0.2-3.1,0.4-4.6,0.7l-4.6,1
		c-1.5,0.4-3.1,0.6-4.6,0.9c-1.5,0.3-3,0.7-4.5,1.2c-0.7,0.2-1.5,0.5-2.2,0.8l-1.1,0.4C374.9,407,374.5,407.2,374,407.2z
		 M374.1,407.2c0.3-0.2,0.7-0.3,1-0.5l1-0.6c0.7-0.4,1.4-0.7,2.1-1c1.5-0.6,3-1.1,4.5-1.5c1.5-0.4,3.1-0.6,4.6-1
		c1.5-0.3,3-0.7,4.6-1c1.5-0.3,3.1-0.5,4.7-0.7c1.5-0.2,3.1-0.4,4.6-0.7c3.1-0.5,6.1-1.2,9.1-2l0.1,0.6c-4.1,0.9-8.2,1.8-12.3,2.8
		l0,0l0,0c-2.1,0.1-4.2,0.4-6.2,0.6c-2.1,0.3-4.1,0.6-6.2,1.1c-2,0.4-4,1-5.9,1.7c-1,0.4-2,0.7-2.9,1.1l-1.5,0.6l-0.7,0.3l-0.4,0.1
		l-0.2,0.1L374.1,407.2L374.1,407.2C374.2,407.2,374.2,407.2,374.1,407.2z"/>
</g>
<g class="st20">
	<path class="st21" d="M584.9,233.5c12.3,11.4,12.7,65.7,12.7,65.7s3.7-57.3-9.8-67.8c-2.2-1.7-11.1,1.2-11.1,1.2
		S583.3,232.1,584.9,233.5z"/>
	<path class="st21" d="M584.9,233.5c2,2,3.4,4.5,4.5,7.1c1.1,2.6,2,5.3,2.7,8c1.4,5.5,2.4,11.1,3.2,16.7c0.8,5.6,1.3,11.2,1.7,16.9
		c0.4,5.6,0.7,11.3,0.8,17l-0.2,0c0.4-6.8,0.5-13.5,0.4-20.3c-0.1-6.8-0.3-13.5-1.1-20.3c-0.4-3.4-0.8-6.7-1.5-10
		c-0.7-3.3-1.5-6.6-2.8-9.8c-0.3-0.8-0.6-1.6-1-2.3c-0.4-0.8-0.8-1.5-1.3-2.2c-0.2-0.4-0.5-0.7-0.8-1c-0.3-0.3-0.5-0.7-0.8-0.9
		l-0.9-0.9c-0.2-0.1-0.4-0.2-0.5-0.3c-0.2-0.1-0.4-0.1-0.6-0.2c-1.7-0.2-3.4,0-5,0.3c-1.7,0.3-3.3,0.8-4.9,1.3l0,0
		c1.4-0.1,2.8-0.1,4.2,0c0.7,0,1.4,0.1,2.1,0.2C583.6,232.9,584.3,233,584.9,233.5z M584.9,233.5c-0.5-0.4-1.3-0.6-1.9-0.7
		c-0.7-0.1-1.4-0.2-2.1-0.2c-1.4-0.1-2.8-0.1-4.2,0l-0.1,0l0.1,0c1.6-0.5,3.3-0.9,4.9-1.3c1.7-0.3,3.4-0.6,5.1-0.4
		c0.2,0,0.4,0.1,0.6,0.2c0.2,0.1,0.4,0.2,0.6,0.3l0.9,0.9c0.3,0.3,0.6,0.6,0.8,1c0.3,0.3,0.6,0.6,0.8,1c0.5,0.7,0.9,1.4,1.3,2.2
		c0.4,0.7,0.7,1.5,1.1,2.3c1.3,3.1,2.1,6.4,2.8,9.8c0.7,3.3,1.1,6.7,1.5,10.1c0.7,6.7,1,13.5,1.1,20.3c0.1,6.8,0,13.6-0.4,20.3
		l-0.2,0c-0.1-5.7-0.3-11.3-0.7-16.9c-0.4-5.6-0.9-11.3-1.6-16.9c-0.7-5.6-1.7-11.2-3.1-16.7c-0.7-2.7-1.6-5.4-2.7-8
		C588.2,238,586.9,235.5,584.9,233.5z"/>
</g>
<g class="st20">
	<path class="st21" d="M372.5,159.3l0.4,7.3l-4.3-24.2l-0.2-10.5c0,0,0,8.7,1.6,15.5C372,155.5,371.3,154.7,372.5,159.3z"/>
	<path class="st21" d="M372.6,159.3c0,0.6,0.1,1.2,0.1,1.8l0.2,1.8c0.2,1.2,0.3,2.4,0.4,3.7l-0.9,0.1c-0.7-4-1.4-8.1-2-12.1
		c-0.6-4.1-1.3-8.1-2.1-12.1l0,0l0,0c-0.1-3.5-0.2-7-0.3-10.5l0.6,0c0.1,2.3,0.3,4.6,0.5,6.9c0.2,2.3,0.5,4.6,1,6.8
		c0.5,2.2,1,4.5,1.3,6.8c0.2,1.2,0.2,2.3,0.4,3.5C372.1,157,372.3,158.1,372.6,159.3z M372.5,159.3c-0.3-1.1-0.6-2.2-0.9-3.4
		c-0.3-1.1-0.5-2.3-0.8-3.4c-0.5-2.3-1.1-4.4-1.6-6.8c-0.4-2.3-0.7-4.6-0.9-6.9c-0.2-2.3-0.2-4.6-0.2-7l0.6,0c0,3.5,0,7,0,10.5l0,0
		c0.7,4,1.5,8.1,2.3,12.1c0.8,4,1.6,8,2.3,12.1l-0.9,0.1c-0.1-1.2,0-2.4,0-3.7l0.1-1.8C372.5,160.5,372.5,159.9,372.5,159.3z"/>
</g>
<g class="st23">
	<path d="M420.1,91.3c-4.5,2.7,12.5-6.5,13.9-6.9c4.2-1,16.1-1,16.1-1l7,1.2c0,0-14.3-0.3-19-0.1C432.6,84.8,426.9,89.2,420.1,91.3z
		"/>
	<path d="M420.1,91.3l-0.4,0.3l-0.2,0.1c0,0-0.1,0.1-0.1,0.1c0,0,0.1,0,0.1,0c0.3-0.1,0.6-0.3,0.9-0.5l1.9-1l3.7-2
		c2.5-1.3,4.9-2.6,7.5-3.8c0.3-0.2,0.7-0.3,1-0.3c0.3-0.1,0.7-0.1,1-0.2c0.7-0.1,1.4-0.2,2.1-0.2c1.4-0.1,2.8-0.2,4.2-0.3
		c2.8-0.1,5.6-0.2,8.4-0.2l0,0l0,0l7,1.1l0,0.1l-9.6-0.1c-3.2,0-6.4-0.1-9.6,0.1c-1.6,0.1-3.1,0.5-4.6,1.1c-1.5,0.5-3,1.2-4.4,1.9
		C426.1,89,423.2,90.4,420.1,91.3z M420.1,91.3c3-1,5.9-2.5,8.8-3.9c2.9-1.4,5.8-2.8,9.1-3c3.2-0.1,6.4-0.1,9.6-0.1
		c3.2,0,6.4,0.1,9.6,0.2l0,0.1l-7-1.2l0,0c-2.8,0-5.6,0.1-8.4,0.3c-1.4,0.1-2.8,0.2-4.2,0.3c-0.7,0.1-1.4,0.1-2.1,0.3
		c-0.3,0-0.7,0.1-1,0.2c-0.4,0.1-0.7,0.1-1,0.3c-2.5,1.1-5,2.5-7.5,3.7l-3.7,1.9l-1.9,0.9c-0.3,0.2-0.6,0.3-0.9,0.5c0,0-0.1,0-0.1,0
		c0-0.1,0.1-0.1,0.1-0.1l0.2-0.1L420.1,91.3z"/>
</g>
<g class="st23">
	<path d="M415.6,90.6c0,0-12.5-4.3-17-4.6c-4.8-0.3-17.6,2.8-17.6,2.8l-7.3,3.7c0,0,15.3-4.3,20.5-5.2
		C400.3,86.1,407.8,89.1,415.6,90.6z"/>
	<path d="M415.6,90.6c-2.8-0.9-5.6-1.8-8.5-2.6c-1.4-0.4-2.9-0.8-4.3-1.1c-1.4-0.3-2.9-0.6-4.4-0.7c-2.9-0.1-5.9,0.5-8.8,0.9
		c-2.9,0.5-5.8,1.1-8.7,1.8l0,0l-7.3,3.7l-0.1-0.1c3.4-1,6.9-1.9,10.4-2.8c3.5-0.9,6.9-1.8,10.5-2.5c3.6-0.6,7.2,0.2,10.7,1
		C408.6,88.9,412.1,89.9,415.6,90.6z M415.6,90.6c-3.6-0.6-7-1.6-10.5-2.3c-3.5-0.8-7.1-1.4-10.6-0.9c-3.5,0.6-7,1.6-10.4,2.5
		l-10.4,2.8l-0.7,0.2l0.6-0.3l7.3-3.6l0,0l0,0c2.9-0.7,5.8-1.3,8.7-1.9c2.9-0.5,5.8-1.1,8.8-1c1.5,0.1,2.9,0.4,4.4,0.8
		c1.4,0.4,2.9,0.7,4.3,1.2C410,88.7,412.8,89.5,415.6,90.6z"/>
</g>
<g class="st23">
	<path d="M420.8,88.4c0,0,5.1-5.9,7.3-7.5c2.4-1.6,9.8-4.1,9.8-4.1l4.8-0.5c0,0-9,2.7-11.9,3.8C427.2,81.5,424.3,85.3,420.8,88.4z"
		/>
	<path d="M420.8,88.4c1.1-1.4,2.3-2.7,3.5-4c1.2-1.3,2.4-2.6,3.8-3.6c1.5-0.9,3.2-1.6,4.8-2.2c1.6-0.6,3.3-1.2,5-1.8l0,0l0,0
		l4.8-0.5l0,0.1l-6.1,1.9c-2,0.7-4.1,1.3-6,2.1c-1.9,0.8-3.5,2.3-5.1,3.7C423.9,85.5,422.4,87,420.8,88.4z M420.8,88.4
		c1.5-1.4,3-3,4.5-4.5c1.5-1.5,3.1-3,5.1-3.8c2-0.8,4-1.4,6.1-2c2-0.6,4.1-1.2,6.1-1.8l0,0.1l-4.8,0.5l0,0c-1.7,0.5-3.3,1.2-4.9,1.8
		c-1.6,0.7-3.3,1.3-4.7,2.3c-1.4,1-2.6,2.3-3.8,3.6C423.1,85.8,422,87.1,420.8,88.4z"/>
</g>
<g class="st23">
	<path d="M415.7,89.1c0,0-6.3-6.1-9.5-7c-3.4-0.9-13-0.5-13-0.5l-5.8,1.6c0,0,11.6-0.9,15.4-0.8C407.4,82.5,410.4,86.9,415.7,89.1z"
		/>
	<path d="M415.7,89.1c-1.5-1.4-3.1-2.7-4.7-4c-0.8-0.6-1.7-1.2-2.5-1.8c-0.9-0.5-1.8-1-2.8-1.2c-2-0.4-4.1-0.4-6.2-0.5
		c-2.1,0-4.2,0-6.2,0.1l0,0l-5.8,1.7l0-0.1c2.5-0.2,5-0.4,7.5-0.6c2.5-0.1,5-0.3,7.5-0.3c1.3,0,2.6,0.3,3.7,0.8
		c1.1,0.6,2.2,1.3,3.2,2C411.4,86.6,413.4,88.1,415.7,89.1z M415.7,89.1c-2.4-0.9-4.4-2.4-6.5-3.9c-2-1.4-4.3-2.9-6.8-2.7
		c-2.5,0-5,0.2-7.5,0.3l-7.5,0.5l-0.7,0l0.7-0.2l5.8-1.6l0,0l0,0c2.1-0.1,4.2-0.1,6.2-0.1c2.1,0,4.2,0.1,6.2,0.4
		c1,0.2,2,0.7,2.9,1.3c0.9,0.6,1.7,1.2,2.5,1.8C412.7,86.3,414.3,87.6,415.7,89.1z"/>
</g>
<g>
	<g class="st23">
		<path d="M506,178.2c-0.5,1.5,1.7-3.8,1.9-4.2c0.8-1,3.3-3.1,3.3-3.1l1.7-1c0,0-3.1,2.5-4.1,3.4C507.7,174.4,507.2,176.5,506,178.2
			z"/>
		<path d="M506.1,178.2l0,0.1c0,0,0,0.1,0,0.1L506.1,178.2l0.3-0.6l0.5-1.1c0.3-0.8,0.6-1.5,1-2.2c0.4-0.7,1.1-1.2,1.7-1.8l1.8-1.6
			l0,0l0,0l1.7-1l0.1,0.1l-2.1,1.7c-0.7,0.6-1.4,1.2-2.1,1.8c-0.6,0.6-1,1.5-1.5,2.3C507,176.7,506.5,177.5,506.1,178.2z M506,178.2
			c0.5-0.8,0.8-1.6,1.2-2.5c0.4-0.8,0.7-1.7,1.4-2.4c0.7-0.6,1.4-1.2,2.1-1.8c0.7-0.6,1.4-1.1,2.2-1.7l0.1,0.1l-1.7,0.9l0,0
			c-0.6,0.5-1.2,1.1-1.8,1.6c-0.3,0.3-0.6,0.6-0.9,0.9c-0.3,0.3-0.6,0.6-0.7,0.9l-1,2.2l-0.5,1.1L506,178.2l0,0.2c0,0,0,0,0,0
			c0,0,0,0,0-0.1l0-0.1L506,178.2z"/>
	</g>
	<g class="st23">
		<path d="M505.7,177.4c0,0,0.2-2.3,0.4-3.1c0.3-0.8,1.5-2.7,1.5-2.7l1-1c0,0-1.5,2.3-2,3.1C506,174.6,506,176,505.7,177.4z"/>
		<path d="M505.7,177.4c0-0.6,0-1.1,0.1-1.6c0-0.5,0.1-1,0.2-1.6c0.2-0.5,0.4-1,0.7-1.4l0.8-1.3l0,0l0,0l0.9-1l0.1,0.1l-1,1.6
			c-0.3,0.5-0.7,1.1-1,1.6c-0.3,0.5-0.4,1.2-0.5,1.8C506,176.2,505.9,176.8,505.7,177.4z M505.7,177.4c0.1-0.6,0.1-1.2,0.2-1.9
			c0.1-0.6,0.2-1.3,0.5-1.9c0.3-0.6,0.7-1.1,1-1.6c0.3-0.5,0.7-1,1.1-1.5l0.1,0.1l-1,1l0,0c-0.3,0.4-0.5,0.9-0.8,1.4
			c-0.2,0.5-0.5,0.9-0.6,1.4C506,175.3,505.9,176.4,505.7,177.4z"/>
	</g>
</g>
<g>
	<g class="st23">
		<path d="M513,200.2c-0.5,1.5,1.7-3.8,1.9-4.2c0.8-1,3.3-3.1,3.3-3.1l1.7-1c0,0-3.1,2.5-4.1,3.4C514.7,196.4,514.2,198.5,513,200.2
			z"/>
		<path d="M513.1,200.2l0,0.1c0,0,0,0.1,0,0.1L513.1,200.2l0.3-0.6l0.5-1.1c0.3-0.8,0.6-1.5,1-2.2c0.4-0.7,1.1-1.2,1.7-1.8l1.8-1.6
			l0,0l0,0l1.7-1l0.1,0.1l-2.1,1.7c-0.7,0.6-1.4,1.2-2.1,1.8c-0.6,0.6-1,1.5-1.5,2.3C514,198.7,513.5,199.5,513.1,200.2z M513,200.2
			c0.5-0.8,0.8-1.6,1.2-2.5c0.4-0.8,0.7-1.7,1.4-2.4c0.7-0.6,1.4-1.2,2.1-1.8c0.7-0.6,1.4-1.1,2.2-1.7l0.1,0.1l-1.7,0.9l0,0
			c-0.6,0.5-1.2,1.1-1.8,1.6c-0.3,0.3-0.6,0.6-0.9,0.9c-0.3,0.3-0.6,0.6-0.7,0.9l-1,2.2l-0.5,1.1L513,200.2l0,0.2c0,0,0,0,0,0
			c0,0,0,0,0-0.1l0-0.1L513,200.2z"/>
	</g>
	<g class="st23">
		<path d="M512.7,199.4c0,0,0.2-2.3,0.4-3.1c0.3-0.8,1.5-2.7,1.5-2.7l1-1c0,0-1.5,2.3-2,3.1C513,196.6,513,198,512.7,199.4z"/>
		<path d="M512.7,199.4c0-0.6,0-1.1,0.1-1.6c0-0.5,0.1-1,0.2-1.6c0.2-0.5,0.4-1,0.7-1.4l0.8-1.3l0,0l0,0l0.9-1l0.1,0.1l-1,1.6
			c-0.3,0.5-0.7,1.1-1,1.6c-0.3,0.5-0.4,1.2-0.5,1.8C513,198.2,512.9,198.8,512.7,199.4z M512.7,199.4c0.1-0.6,0.1-1.2,0.2-1.9
			c0.1-0.6,0.2-1.3,0.5-1.9c0.3-0.6,0.7-1.1,1-1.6c0.3-0.5,0.7-1,1.1-1.5l0.1,0.1l-1,1l0,0c-0.3,0.4-0.5,0.9-0.8,1.4
			c-0.2,0.5-0.5,0.9-0.6,1.4C513,197.3,512.9,198.4,512.7,199.4z"/>
	</g>
</g>
<g>
	<g class="st23">
		<path d="M523.7,210.3c0.5,1.3-1.4-3.4-1.6-3.7c-0.6-0.9-2.7-2.7-2.7-2.7L518,203c0,0,2.6,2.2,3.4,3
			C522.4,206.9,522.8,208.7,523.7,210.3z"/>
		<path d="M523.7,210.3c0,0.1,0.1,0.2,0,0.2L523.7,210.3l-0.3-0.5l-0.4-1l-0.9-1.9c-0.1-0.3-0.4-0.5-0.6-0.8l-0.7-0.8
			c-0.5-0.5-1-1-1.5-1.4l0,0l-1.4-0.8l0.1-0.1c0.6,0.5,1.2,1,1.8,1.5c0.6,0.5,1.2,1,1.8,1.6c0.6,0.6,0.8,1.4,1.1,2.1
			C523.1,208.8,523.3,209.6,523.7,210.3z M523.7,210.3c-0.4-0.7-0.8-1.4-1.1-2.1c-0.3-0.7-0.7-1.4-1.2-2c-0.5-0.5-1.1-1.1-1.7-1.6
			l-1.8-1.6l0.1-0.1l1.4,0.9l0,0l0,0l1.5,1.4c0.5,0.5,1.1,0.9,1.4,1.6c0.3,0.6,0.5,1.3,0.8,1.9l0.4,1L523.7,210.3l0.1,0.2
			C523.8,210.5,523.7,210.3,523.7,210.3z"/>
	</g>
	<g class="st23">
		<path d="M524,209.5c0,0-0.1-2.1-0.3-2.8c-0.2-0.7-1.2-2.4-1.2-2.4l-0.8-0.9c0,0,1.3,2,1.6,2.7C523.7,207,523.8,208.3,524,209.5z"
			/>
		<path d="M524,209.5c-0.2-0.9-0.2-1.8-0.4-2.7c-0.1-0.4-0.3-0.8-0.5-1.3c-0.2-0.4-0.4-0.8-0.6-1.2l0,0c-0.3-0.3-0.5-0.6-0.8-0.8
			l0.1-0.1c0.3,0.5,0.6,0.9,0.9,1.4c0.3,0.5,0.6,0.9,0.8,1.4c0.2,0.5,0.3,1.1,0.4,1.6C523.9,208.4,524,209,524,209.5z M524,209.5
			c-0.2-0.6-0.2-1.1-0.3-1.6c-0.1-0.5-0.2-1.1-0.4-1.5c-0.2-0.5-0.5-0.9-0.8-1.4l-0.8-1.4l0.1-0.1c0.3,0.3,0.5,0.6,0.8,0.9l0,0l0,0
			l0.7,1.2c0.2,0.4,0.5,0.8,0.6,1.3c0.1,0.5,0.1,0.9,0.2,1.4C524,208.6,524,209.1,524,209.5z"/>
	</g>
</g>
<g>
	<g class="st23">
		<path d="M507,234.2c-0.5,1.5,1.7-3.8,1.9-4.2c0.8-1,3.3-3.1,3.3-3.1l1.7-1c0,0-3.1,2.5-4.1,3.4C508.7,230.4,508.2,232.5,507,234.2
			z"/>
		<path d="M507.1,234.2l0,0.1c0,0,0,0.1,0,0.1L507.1,234.2l0.3-0.6l0.5-1.1c0.3-0.8,0.6-1.5,1-2.2c0.4-0.7,1.1-1.2,1.7-1.8l1.8-1.6
			l0,0l0,0l1.7-1l0.1,0.1l-2.1,1.7c-0.7,0.6-1.4,1.2-2.1,1.8c-0.6,0.6-1,1.5-1.5,2.3C508,232.7,507.5,233.5,507.1,234.2z M507,234.2
			c0.5-0.8,0.8-1.6,1.2-2.5c0.4-0.8,0.7-1.7,1.4-2.4c0.7-0.6,1.4-1.2,2.1-1.8c0.7-0.6,1.4-1.1,2.2-1.7l0.1,0.1l-1.7,0.9l0,0
			c-0.6,0.5-1.2,1.1-1.8,1.6c-0.3,0.3-0.6,0.6-0.9,0.9c-0.3,0.3-0.6,0.6-0.7,0.9l-1,2.2l-0.5,1.1L507,234.2l0,0.2c0,0,0,0,0,0
			c0,0,0,0,0-0.1l0-0.1L507,234.2z"/>
	</g>
	<g class="st23">
		<path d="M506.7,233.4c0,0,0.2-2.3,0.4-3.1c0.3-0.8,1.5-2.7,1.5-2.7l1-1c0,0-1.5,2.3-2,3.1C507,230.6,507,232,506.7,233.4z"/>
		<path d="M506.7,233.4c0-0.6,0-1.1,0.1-1.6c0-0.5,0.1-1,0.2-1.6c0.2-0.5,0.4-1,0.7-1.4l0.8-1.3l0,0l0,0l0.9-1l0.1,0.1l-1,1.6
			c-0.3,0.5-0.7,1.1-1,1.6c-0.3,0.5-0.4,1.2-0.5,1.8C507,232.2,506.9,232.8,506.7,233.4z M506.7,233.4c0.1-0.6,0.1-1.2,0.2-1.9
			c0.1-0.6,0.2-1.3,0.5-1.9c0.3-0.6,0.7-1.1,1-1.6c0.3-0.5,0.7-1,1.1-1.5l0.1,0.1l-1,1l0,0c-0.3,0.4-0.5,0.9-0.8,1.4
			c-0.2,0.5-0.5,0.9-0.6,1.4C507,231.3,506.9,232.4,506.7,233.4z"/>
	</g>
</g>
<g>
	<g class="st23">
		<path d="M510,259.2c-0.5,1.5,1.7-3.8,1.9-4.2c0.8-1,3.3-3.1,3.3-3.1l1.7-1c0,0-3.1,2.5-4.1,3.4C511.7,255.4,511.2,257.5,510,259.2
			z"/>
		<path d="M510.1,259.2l0,0.1c0,0,0,0.1,0,0.1L510.1,259.2l0.3-0.6l0.5-1.1c0.3-0.8,0.6-1.5,1-2.2c0.4-0.7,1.1-1.2,1.7-1.8l1.8-1.6
			l0,0l0,0l1.7-1l0.1,0.1l-2.1,1.7c-0.7,0.6-1.4,1.2-2.1,1.8c-0.6,0.6-1,1.5-1.5,2.3C511,257.7,510.5,258.5,510.1,259.2z M510,259.2
			c0.5-0.8,0.8-1.6,1.2-2.5c0.4-0.8,0.7-1.7,1.4-2.4c0.7-0.6,1.4-1.2,2.1-1.8c0.7-0.6,1.4-1.1,2.2-1.7l0.1,0.1l-1.7,0.9l0,0
			c-0.6,0.5-1.2,1.1-1.8,1.6c-0.3,0.3-0.6,0.6-0.9,0.9c-0.3,0.3-0.6,0.6-0.7,0.9l-1,2.2l-0.5,1.1L510,259.2l0,0.2c0,0,0,0,0,0
			c0,0,0,0,0-0.1l0-0.1L510,259.2z"/>
	</g>
	<g class="st23">
		<path d="M509.7,258.4c0,0,0.2-2.3,0.4-3.1c0.3-0.8,1.5-2.7,1.5-2.7l1-1c0,0-1.5,2.3-2,3.1C510,255.6,510,257,509.7,258.4z"/>
		<path d="M509.7,258.4c0-0.6,0-1.1,0.1-1.6c0-0.5,0.1-1,0.2-1.6c0.2-0.5,0.4-1,0.7-1.4l0.8-1.3l0,0l0,0l0.9-1l0.1,0.1l-1,1.6
			c-0.3,0.5-0.7,1.1-1,1.6c-0.3,0.5-0.4,1.2-0.5,1.8C510,257.2,509.9,257.8,509.7,258.4z M509.7,258.4c0.1-0.6,0.1-1.2,0.2-1.9
			c0.1-0.6,0.2-1.3,0.5-1.9c0.3-0.6,0.7-1.1,1-1.6c0.3-0.5,0.7-1,1.1-1.5l0.1,0.1l-1,1l0,0c-0.3,0.4-0.5,0.9-0.8,1.4
			c-0.2,0.5-0.5,0.9-0.6,1.4C510,256.3,509.9,257.4,509.7,258.4z"/>
	</g>
</g>
<g>
	<g class="st23">
		<path d="M510.8,280.8c-1,1.2,2.9-3,3.3-3.2c1.1-0.7,4.2-1.7,4.2-1.7l1.9-0.3c0,0-3.8,1.2-5,1.7
			C513.7,277.8,512.5,279.6,510.8,280.8z"/>
		<path d="M510.8,280.8l-0.1,0.1c0,0-0.1,0.1-0.1,0.1L510.8,280.8l0.5-0.5l0.8-0.9c0.5-0.6,1.1-1.2,1.7-1.8c0.7-0.5,1.5-0.8,2.2-1.1
			l2.3-0.8l0,0l0,0l1.9-0.3l0,0.1l-2.6,0.9c-0.9,0.3-1.7,0.6-2.6,0.9c-0.8,0.4-1.5,1-2.2,1.6C512.2,279.6,511.6,280.3,510.8,280.8z
			 M510.8,280.8c0.7-0.6,1.4-1.2,2-1.9c0.6-0.6,1.3-1.3,2.2-1.7c0.9-0.4,1.7-0.6,2.6-0.9c0.9-0.3,1.8-0.5,2.6-0.8l0,0.1l-1.9,0.3
			l0,0c-0.8,0.3-1.5,0.6-2.3,0.9c-0.4,0.2-0.7,0.3-1.1,0.5c-0.3,0.2-0.8,0.3-1,0.6l-1.7,1.7l-0.9,0.8L510.8,280.8l-0.1,0.2
			c0,0,0,0,0,0c0,0,0,0,0,0l0-0.1L510.8,280.8z"/>
	</g>
	<g class="st23">
		<path d="M510.8,279.9c0,0,1-2.1,1.5-2.8c0.5-0.7,2.3-2,2.3-2l1.2-0.6c0,0-2.2,1.6-2.9,2.2C512.1,277.4,511.6,278.7,510.8,279.9z"
			/>
		<path d="M510.8,279.9c0.2-0.5,0.4-1,0.6-1.5c0.2-0.5,0.5-0.9,0.8-1.4c0.3-0.4,0.8-0.7,1.2-1.1l1.2-1l0,0l0,0l1.2-0.6l0.1,0.1
			l-1.5,1.1c-0.5,0.4-1,0.8-1.5,1.1c-0.4,0.4-0.8,0.9-1.1,1.5C511.5,278.8,511.2,279.4,510.8,279.9z M510.8,279.9
			c0.3-0.5,0.6-1.1,0.8-1.7c0.3-0.6,0.6-1.1,1.1-1.6c0.5-0.4,1-0.8,1.5-1.1c0.5-0.4,1-0.7,1.6-1.1l0.1,0.1l-1.2,0.5l0,0
			c-0.4,0.3-0.8,0.6-1.2,1c-0.4,0.4-0.8,0.7-1.1,1.1C511.8,278,511.3,279,510.8,279.9z"/>
	</g>
</g>
<g>
	<g class="st23">
		<path d="M511.7,302.4c-1.1,1.1,3.2-2.7,3.5-2.9c1.1-0.6,4.3-1.4,4.3-1.4l2-0.1c0,0-3.9,0.9-5.2,1.3
			C514.8,299.7,513.4,301.3,511.7,302.4z"/>
		<path d="M511.7,302.4l-0.1,0.1c0,0-0.1,0.1-0.1,0L511.7,302.4l0.5-0.4l0.9-0.8c0.6-0.5,1.2-1.1,1.8-1.6c0.7-0.5,1.5-0.6,2.3-0.9
			l2.3-0.6l0,0l0,0l2-0.2l0,0.1l-2.7,0.7c-0.9,0.2-1.8,0.4-2.6,0.7c-0.8,0.3-1.6,0.9-2.3,1.4C513.2,301.4,512.4,302,511.7,302.4z
			 M511.6,302.4c0.8-0.5,1.5-1.1,2.1-1.7c0.7-0.6,1.4-1.2,2.3-1.5c0.9-0.3,1.8-0.5,2.7-0.7c0.9-0.2,1.8-0.4,2.7-0.6l0,0.1l-2,0.1
			l0,0c-0.8,0.2-1.6,0.4-2.3,0.7c-0.4,0.1-0.8,0.3-1.1,0.4c-0.4,0.2-0.8,0.3-1.1,0.5l-1.9,1.5l-0.9,0.8L511.6,302.4l-0.1,0.2
			c0,0,0,0,0,0c0,0,0,0,0,0l0.1-0.1L511.6,302.4z"/>
	</g>
	<g class="st23">
		<path d="M511.7,301.5c0,0,1.1-2.1,1.7-2.7c0.6-0.6,2.5-1.8,2.5-1.8l1.3-0.5c0,0-2.4,1.4-3.1,1.9
			C513.2,299.1,512.6,300.4,511.7,301.5z"/>
		<path d="M511.7,301.5c0.2-0.5,0.5-0.9,0.7-1.4c0.3-0.5,0.5-0.9,0.9-1.3c0.4-0.4,0.8-0.7,1.3-1l1.3-0.9l0,0l0,0l1.3-0.5l0.1,0.1
			l-1.6,1c-0.5,0.3-1.1,0.7-1.6,1c-0.5,0.4-0.9,0.9-1.2,1.4C512.5,300.5,512.1,301.1,511.7,301.5z M511.7,301.5
			c0.3-0.5,0.6-1.1,1-1.6c0.3-0.5,0.7-1.1,1.2-1.5c0.5-0.4,1.1-0.7,1.6-1c0.5-0.3,1.1-0.6,1.6-0.9l0.1,0.1l-1.3,0.4l0,0
			c-0.4,0.3-0.9,0.6-1.3,0.9c-0.4,0.3-0.8,0.6-1.2,1C512.8,299.8,512.3,300.7,511.7,301.5z"/>
	</g>
</g>
<g>
	<g class="st23">
		<path d="M511.9,323.9c-1,1.2,2.8-3.1,3.2-3.3c1-0.7,4.2-1.9,4.2-1.9l1.9-0.4c0,0-3.8,1.3-5,1.8
			C514.7,320.9,513.5,322.7,511.9,323.9z"/>
		<path d="M511.9,323.9l-0.1,0.1c0,0-0.1,0.1-0.1,0.1L511.9,323.9l0.5-0.5l0.8-0.9c0.5-0.6,1.1-1.2,1.6-1.8c0.7-0.6,1.4-0.8,2.2-1.1
			l2.3-0.9l0,0l0,0l1.9-0.4l0,0.1l-2.6,1c-0.9,0.3-1.7,0.6-2.5,1c-0.8,0.4-1.5,1-2.1,1.7C513.3,322.7,512.6,323.4,511.9,323.9z
			 M511.9,323.9c0.7-0.6,1.3-1.3,2-1.9c0.6-0.7,1.3-1.4,2.1-1.8c0.9-0.4,1.7-0.7,2.6-1c0.9-0.3,1.7-0.6,2.6-0.9l0,0.1l-1.9,0.3l0,0
			c-0.8,0.3-1.5,0.6-2.2,0.9c-0.4,0.2-0.7,0.3-1.1,0.5c-0.3,0.2-0.7,0.3-1,0.6l-1.7,1.7l-0.8,0.9L511.9,323.9l-0.1,0.2c0,0,0,0,0,0
			c0,0,0,0,0,0l0-0.1L511.9,323.9z"/>
	</g>
	<g class="st23">
		<path d="M511.9,323c0,0,0.9-2.2,1.4-2.8c0.5-0.7,2.3-2.1,2.3-2.1l1.2-0.6c0,0-2.2,1.6-2.9,2.2C513.1,320.5,512.6,321.8,511.9,323z
			"/>
		<path d="M511.9,323c0.2-0.5,0.4-1,0.6-1.5c0.2-0.5,0.4-1,0.7-1.4c0.3-0.4,0.7-0.8,1.1-1.1l1.2-1l0,0l0,0l1.2-0.6l0.1,0.1l-1.5,1.2
			c-0.5,0.4-1,0.8-1.4,1.2c-0.4,0.4-0.8,1-1.1,1.5C512.5,322,512.3,322.5,511.9,323z M511.9,323c0.2-0.6,0.5-1.1,0.8-1.7
			c0.3-0.6,0.6-1.1,1-1.6c0.5-0.4,1-0.8,1.5-1.2c0.5-0.4,1-0.7,1.5-1.1l0.1,0.1l-1.2,0.6l0,0c-0.4,0.3-0.8,0.7-1.2,1
			c-0.4,0.4-0.8,0.7-1.1,1.1C512.8,321.1,512.4,322.1,511.9,323z"/>
	</g>
</g>
<g>
	<g class="st23">
		<path d="M521.7,334.8c0.8-1.7-2.2,4.5-2.5,4.8c-0.9,1.1-3.5,3-3.5,3l-1.7,0.7c0,0,3.2-2.3,4.3-3.1
			C519.5,339.2,520.4,336.7,521.7,334.8z"/>
		<path d="M521.7,334.8c0.1-0.1,0.1-0.2,0.1-0.3L521.7,334.8l-0.3,0.6l-0.6,1.2c-0.4,0.8-0.8,1.6-1.2,2.4c-0.1,0.2-0.2,0.4-0.3,0.6
			c-0.2,0.2-0.3,0.3-0.5,0.5c-0.3,0.3-0.7,0.6-1,0.9l-2.1,1.7l0,0l0,0l-1.7,0.8l-0.6,0.3l0.6-0.4l2.4-1.8l1.2-0.9
			c0.4-0.3,0.8-0.6,1.1-0.9c0.6-0.7,1.1-1.6,1.6-2.5C520.7,336.4,521.2,335.6,521.7,334.8z M521.7,334.8c-0.6,0.8-1,1.7-1.4,2.6
			c-0.5,0.9-0.9,1.8-1.5,2.6c-0.7,0.8-1.5,1.3-2.3,1.9c-0.8,0.6-1.6,1.1-2.4,1.7l-0.1-0.1l1.7-0.7l0,0c0.7-0.5,1.4-1.1,2.1-1.7
			c0.3-0.3,0.7-0.6,1-0.9c0.2-0.2,0.3-0.3,0.4-0.5l0.3-0.6l1.3-2.4l0.6-1.2L521.7,334.8c0-0.1,0-0.2,0.1-0.3
			C521.9,334.6,521.8,334.7,521.7,334.8z"/>
	</g>
	<g class="st23">
		<path d="M521.9,336c0,0-0.6,3-1,3.9c-0.4,1-1.8,3.1-1.8,3.1l-1,1c0,0,1.8-2.5,2.3-3.4C521,339.5,521.3,337.7,521.9,336z"/>
		<path d="M521.9,335.9c-0.1,0.7-0.2,1.3-0.3,1.9c-0.1,0.6-0.3,1.3-0.5,1.9c-0.2,0.6-0.6,1.2-0.9,1.7l-1.1,1.6l0,0l0,0l-1,1L518,344
			l1.3-1.9c0.4-0.6,0.9-1.2,1.2-1.9c0.3-0.7,0.5-1.4,0.7-2.1C521.4,337.4,521.6,336.7,521.9,335.9z M521.9,336
			c-0.1,0.7-0.3,1.5-0.5,2.2c-0.2,0.7-0.4,1.5-0.7,2.2c-0.4,0.7-0.8,1.3-1.2,1.9c-0.4,0.6-0.9,1.2-1.3,1.8l-0.1-0.1l1-1l0,0
			c0.4-0.5,0.7-1.1,1-1.6c0.3-0.6,0.6-1.1,0.8-1.7C521.2,338.5,521.5,337.2,521.9,336z"/>
	</g>
</g>
<g>
	<g class="st23">
		<path d="M500.1,337.8c-0.8-1.7,2.2,4.5,2.5,4.8c0.9,1.1,3.5,3,3.5,3l1.7,0.7c0,0-3.2-2.3-4.3-3.1
			C502.3,342.2,501.5,339.7,500.1,337.8z"/>
		<path d="M500.1,337.8c0-0.1-0.1-0.2-0.1-0.3C500.1,337.6,500.1,337.7,500.1,337.8l0.4,0.6l0.6,1.2l1.3,2.4l0.3,0.6
			c0.1,0.2,0.3,0.3,0.4,0.5c0.3,0.3,0.6,0.6,1,0.9c0.7,0.6,1.4,1.2,2.1,1.7l0,0l1.7,0.7l-0.1,0.1c-0.8-0.6-1.6-1.1-2.4-1.7
			c-0.8-0.6-1.6-1.1-2.3-1.9c-0.7-0.8-1.1-1.7-1.5-2.6C501.1,339.5,500.7,338.6,500.1,337.8z M500.1,337.8c0.6,0.8,1,1.7,1.5,2.5
			c0.5,0.9,1,1.7,1.6,2.5c0.3,0.4,0.7,0.6,1.1,0.9l1.2,0.9l2.4,1.8l0.6,0.4l-0.6-0.3l-1.7-0.8l0,0l0,0L504,344
			c-0.3-0.3-0.7-0.6-1-0.9c-0.2-0.2-0.3-0.3-0.5-0.5c-0.1-0.2-0.2-0.4-0.3-0.6c-0.4-0.8-0.8-1.6-1.2-2.4l-0.6-1.2L500.1,337.8
			l-0.1-0.3C500.1,337.5,500.1,337.7,500.1,337.8z"/>
	</g>
	<g class="st23">
		<path d="M500,339c0,0,0.6,3,1,3.9c0.4,1,1.8,3.1,1.8,3.1l1,1c0,0-1.8-2.5-2.3-3.4C500.8,342.5,500.5,340.7,500,339z"/>
		<path d="M500,339c0.4,1.2,0.6,2.5,1,3.7c0.2,0.6,0.5,1.1,0.8,1.7c0.3,0.6,0.6,1.1,1,1.6l0,0l1,1l-0.1,0.1
			c-0.5-0.6-0.9-1.2-1.3-1.8c-0.4-0.6-0.9-1.2-1.2-1.9c-0.3-0.7-0.5-1.4-0.7-2.2C500.3,340.4,500.2,339.7,500,339z M500,338.9
			c0.3,0.7,0.5,1.4,0.7,2.2c0.2,0.7,0.4,1.4,0.7,2.1c0.3,0.6,0.8,1.3,1.2,1.9l1.3,1.9l-0.1,0.1l-1-1l0,0l0,0l-1.1-1.6
			c-0.3-0.5-0.7-1.1-0.9-1.7c-0.2-0.6-0.3-1.2-0.5-1.9C500.2,340.2,500.1,339.6,500,338.9z"/>
	</g>
</g>
<g>
	<g class="st23">
		<path d="M507.7,334.8c1.3,0.9-3.5-2.3-3.9-2.5c-1.2-0.4-4.5-0.8-4.5-0.8l-2,0.1c0,0,4,0.4,5.3,0.6
			C504.2,332.5,505.8,333.9,507.7,334.8z"/>
		<path d="M507.7,334.8l0.1,0.1l0.1,0c0,0,0,0,0,0c0,0,0,0,0,0L507.7,334.8l-0.6-0.3l-1-0.6l-2.1-1.3c-0.3-0.2-0.7-0.3-1.1-0.4
			c-0.4-0.1-0.8-0.2-1.2-0.3c-0.8-0.2-1.6-0.3-2.4-0.4l0,0l-2,0.1l0-0.1c0.9,0.1,1.8,0.1,2.7,0.2c0.9,0.1,1.8,0.2,2.7,0.3
			c0.9,0.2,1.7,0.7,2.5,1.2C506.1,333.9,506.8,334.4,507.7,334.8z M507.6,334.8c-0.8-0.4-1.6-0.8-2.4-1.3c-0.8-0.4-1.6-0.9-2.5-1.1
			c-0.9-0.2-1.8-0.3-2.7-0.4l-2.7-0.3l0-0.1l2-0.1l0,0l0,0l2.4,0.3c0.8,0.1,1.6,0.2,2.4,0.6c0.7,0.4,1.3,0.9,2,1.4l1,0.7
			L507.6,334.8l0.2,0.1c0,0,0,0-0.1,0L507.6,334.8z"/>
	</g>
	<g class="st23">
		<path d="M507.5,333.9c0,0-1.4-1.9-2-2.4c-0.7-0.6-2.7-1.5-2.7-1.5l-1.3-0.3c0,0,2.5,1.1,3.3,1.5
			C505.7,331.7,506.5,332.9,507.5,333.9z"/>
		<path d="M507.5,333.9c-0.7-0.7-1.3-1.6-2.1-2.3c-0.4-0.3-0.8-0.6-1.3-0.8c-0.4-0.3-0.9-0.5-1.4-0.7l0,0l-1.3-0.3l0-0.1
			c0.6,0.2,1.2,0.5,1.7,0.7c0.6,0.3,1.2,0.5,1.7,0.8c0.6,0.3,1,0.8,1.4,1.3C506.7,332.9,507.1,333.4,507.5,333.9z M507.5,333.9
			c-0.5-0.4-0.9-0.9-1.3-1.4c-0.4-0.5-0.9-0.9-1.4-1.2c-0.5-0.3-1.1-0.5-1.7-0.8l-1.7-0.8l0-0.1l1.3,0.3l0,0l0,0l1.4,0.7
			c0.5,0.2,0.9,0.5,1.4,0.8c0.4,0.4,0.7,0.8,1,1.2C506.9,333,507.2,333.4,507.5,333.9z"/>
	</g>
</g>
<g>
	<g class="st23">
		<path d="M503.7,314.8c1.3,0.9-3.5-2.3-3.9-2.5c-1.2-0.4-4.5-0.8-4.5-0.8l-2,0.1c0,0,4,0.4,5.3,0.6
			C500.2,312.5,501.8,313.9,503.7,314.8z"/>
		<path d="M503.7,314.8l0.1,0.1l0.1,0c0,0,0,0,0,0c0,0,0,0,0,0L503.7,314.8l-0.6-0.3l-1-0.6l-2.1-1.3c-0.3-0.2-0.7-0.3-1.1-0.4
			c-0.4-0.1-0.8-0.2-1.2-0.3c-0.8-0.2-1.6-0.3-2.4-0.4l0,0l-2,0.1l0-0.1c0.9,0.1,1.8,0.1,2.7,0.2c0.9,0.1,1.8,0.2,2.7,0.3
			c0.9,0.2,1.7,0.7,2.5,1.2C502.1,313.9,502.8,314.4,503.7,314.8z M503.6,314.8c-0.8-0.4-1.6-0.8-2.4-1.3c-0.8-0.4-1.6-0.9-2.5-1.1
			c-0.9-0.2-1.8-0.3-2.7-0.4l-2.7-0.3l0-0.1l2-0.1l0,0l0,0l2.4,0.3c0.8,0.1,1.6,0.2,2.4,0.6c0.7,0.4,1.3,0.9,2,1.4l1,0.7
			L503.6,314.8l0.2,0.1c0,0,0,0-0.1,0L503.6,314.8z"/>
	</g>
	<g class="st23">
		<path d="M503.5,313.9c0,0-1.4-1.9-2-2.4c-0.7-0.6-2.7-1.5-2.7-1.5l-1.3-0.3c0,0,2.5,1.1,3.3,1.5
			C501.7,311.7,502.5,312.9,503.5,313.9z"/>
		<path d="M503.5,313.9c-0.7-0.7-1.3-1.6-2.1-2.3c-0.4-0.3-0.8-0.6-1.3-0.8c-0.4-0.3-0.9-0.5-1.4-0.7l0,0l-1.3-0.3l0-0.1
			c0.6,0.2,1.2,0.5,1.7,0.7c0.6,0.3,1.2,0.5,1.7,0.8c0.6,0.3,1,0.8,1.4,1.3C502.7,312.9,503.1,313.4,503.5,313.9z M503.5,313.9
			c-0.5-0.4-0.9-0.9-1.3-1.4c-0.4-0.5-0.9-0.9-1.4-1.2c-0.5-0.3-1.1-0.5-1.7-0.8l-1.7-0.8l0-0.1l1.3,0.3l0,0l0,0l1.4,0.7
			c0.5,0.2,0.9,0.5,1.4,0.8c0.4,0.4,0.7,0.8,1,1.2C502.9,313,503.2,313.4,503.5,313.9z"/>
	</g>
</g>
<g>
	<g class="st23">
		<path d="M502.7,292.8c1.1,0.9-2.9-2.2-3.3-2.3c-1-0.4-3.8-0.8-3.8-0.8l-1.7,0.1c0,0,3.4,0.4,4.5,0.6
			C499.8,290.6,501.1,292,502.7,292.8z"/>
		<path d="M502.7,292.8c0,0.1,0.2,0.1,0.1,0.2L502.7,292.8l-0.5-0.3l-0.9-0.6l-1.7-1.2c-0.3-0.2-0.6-0.3-0.9-0.4
			c-0.3-0.1-0.7-0.2-1-0.2c-0.7-0.2-1.4-0.3-2-0.4l0,0l-1.6,0.1l0-0.1c0.8,0.1,1.6,0.1,2.3,0.2c0.8,0.1,1.5,0.2,2.3,0.3
			c0.8,0.2,1.4,0.7,2.1,1.2C501.4,291.9,502,292.4,502.7,292.8z M502.7,292.8c-0.7-0.3-1.4-0.8-2-1.2c-0.7-0.4-1.3-0.8-2-1
			c-0.7-0.1-1.5-0.2-2.3-0.3l-2.3-0.3l0-0.1l1.7-0.1l0,0l0,0l2.1,0.3c0.7,0.1,1.4,0.2,2,0.6c0.6,0.4,1.1,0.8,1.7,1.3l0.8,0.6
			L502.7,292.8l0.2,0.1C502.8,293,502.7,292.8,502.7,292.8z"/>
	</g>
	<g class="st23">
		<path d="M502.5,292c0,0-1.2-1.8-1.7-2.3c-0.6-0.5-2.3-1.4-2.3-1.4l-1.1-0.3c0,0,2.1,1,2.8,1.4C501,289.9,501.7,291,502.5,292z"/>
		<path d="M502.5,292c-0.6-0.7-1.1-1.5-1.7-2.1c-0.3-0.3-0.7-0.6-1.1-0.8c-0.4-0.3-0.8-0.5-1.2-0.7l0,0c-0.4-0.1-0.8-0.2-1.1-0.3
			l0-0.1c0.5,0.2,1,0.4,1.5,0.7c0.5,0.2,1,0.5,1.5,0.8c0.5,0.3,0.8,0.8,1.2,1.2C501.9,291.1,502.2,291.5,502.5,292z M502.6,292
			c-0.4-0.4-0.8-0.8-1.1-1.2c-0.4-0.4-0.7-0.8-1.1-1.1c-0.4-0.3-1-0.5-1.4-0.8l-1.5-0.8l0-0.1c0.4,0.1,0.7,0.2,1.1,0.3l0,0l0,0
			l1.2,0.6c0.4,0.2,0.8,0.4,1.2,0.8c0.3,0.4,0.6,0.7,0.9,1.1C502.1,291.2,502.3,291.5,502.6,292z"/>
	</g>
</g>
<g>
	<g class="st23">
		<path d="M502.7,272.8c1.1,0.9-2.9-2.2-3.3-2.3c-1-0.4-3.8-0.8-3.8-0.8l-1.7,0.1c0,0,3.4,0.4,4.5,0.6
			C499.8,270.6,501.1,272,502.7,272.8z"/>
		<path d="M502.7,272.8c0,0.1,0.2,0.1,0.1,0.2L502.7,272.8l-0.5-0.3l-0.9-0.6l-1.7-1.2c-0.3-0.2-0.6-0.3-0.9-0.4
			c-0.3-0.1-0.7-0.2-1-0.2c-0.7-0.2-1.4-0.3-2-0.4l0,0l-1.6,0.1l0-0.1c0.8,0.1,1.6,0.1,2.3,0.2c0.8,0.1,1.5,0.2,2.3,0.3
			c0.8,0.2,1.4,0.7,2.1,1.2C501.4,271.9,502,272.4,502.7,272.8z M502.7,272.8c-0.7-0.3-1.4-0.8-2-1.2c-0.7-0.4-1.3-0.8-2-1
			c-0.7-0.1-1.5-0.2-2.3-0.3l-2.3-0.3l0-0.1l1.7-0.1l0,0l0,0l2.1,0.3c0.7,0.1,1.4,0.2,2,0.6c0.6,0.4,1.1,0.8,1.7,1.3l0.8,0.6
			L502.7,272.8l0.2,0.1C502.8,273,502.7,272.8,502.7,272.8z"/>
	</g>
	<g class="st23">
		<path d="M502.5,272c0,0-1.2-1.8-1.7-2.3c-0.6-0.5-2.3-1.4-2.3-1.4l-1.1-0.3c0,0,2.1,1,2.8,1.4C501,269.9,501.7,271,502.5,272z"/>
		<path d="M502.5,272c-0.6-0.7-1.1-1.5-1.7-2.1c-0.3-0.3-0.7-0.6-1.1-0.8c-0.4-0.3-0.8-0.5-1.2-0.7l0,0c-0.4-0.1-0.8-0.2-1.1-0.3
			l0-0.1c0.5,0.2,1,0.4,1.5,0.7c0.5,0.2,1,0.5,1.5,0.8c0.5,0.3,0.8,0.8,1.2,1.2C501.9,271.1,502.2,271.5,502.5,272z M502.6,272
			c-0.4-0.4-0.8-0.8-1.1-1.2c-0.4-0.4-0.7-0.8-1.1-1.1c-0.4-0.3-1-0.5-1.4-0.8l-1.5-0.8l0-0.1c0.4,0.1,0.7,0.2,1.1,0.3l0,0l0,0
			l1.2,0.6c0.4,0.2,0.8,0.4,1.2,0.8c0.3,0.4,0.6,0.7,0.9,1.1C502.1,271.2,502.3,271.5,502.6,272z"/>
	</g>
</g>
<g>
	<g class="st23">
		<path d="M503.7,251.8c1.1,0.9-2.9-2.2-3.3-2.3c-1-0.4-3.8-0.8-3.8-0.8l-1.7,0.1c0,0,3.4,0.4,4.5,0.6
			C500.8,249.6,502.1,251,503.7,251.8z"/>
		<path d="M503.7,251.8c0,0.1,0.2,0.1,0.1,0.2L503.7,251.8l-0.5-0.3l-0.9-0.6l-1.7-1.2c-0.3-0.2-0.6-0.3-0.9-0.4
			c-0.3-0.1-0.7-0.2-1-0.2c-0.7-0.2-1.4-0.3-2-0.4l0,0l-1.6,0.1l0-0.1c0.8,0.1,1.6,0.1,2.3,0.2c0.8,0.1,1.5,0.2,2.3,0.3
			c0.8,0.2,1.4,0.7,2.1,1.2C502.4,250.9,503,251.4,503.7,251.8z M503.7,251.8c-0.7-0.3-1.4-0.8-2-1.2c-0.7-0.4-1.3-0.8-2-1
			c-0.7-0.1-1.5-0.2-2.3-0.3l-2.3-0.3l0-0.1l1.7-0.1l0,0l0,0l2.1,0.3c0.7,0.1,1.4,0.2,2,0.6c0.6,0.4,1.1,0.8,1.7,1.3l0.8,0.6
			L503.7,251.8l0.2,0.1C503.8,252,503.7,251.8,503.7,251.8z"/>
	</g>
	<g class="st23">
		<path d="M503.5,251c0,0-1.2-1.8-1.7-2.3c-0.6-0.5-2.3-1.4-2.3-1.4l-1.1-0.3c0,0,2.1,1,2.8,1.4C502,248.9,502.7,250,503.5,251z"/>
		<path d="M503.5,251c-0.6-0.7-1.1-1.5-1.7-2.1c-0.3-0.3-0.7-0.6-1.1-0.8c-0.4-0.3-0.8-0.5-1.2-0.7l0,0c-0.4-0.1-0.8-0.2-1.1-0.3
			l0-0.1c0.5,0.2,1,0.4,1.5,0.7c0.5,0.2,1,0.5,1.5,0.8c0.5,0.3,0.8,0.8,1.2,1.2C502.9,250.1,503.2,250.5,503.5,251z M503.6,251
			c-0.4-0.4-0.8-0.8-1.1-1.2c-0.4-0.4-0.7-0.8-1.1-1.1c-0.4-0.3-1-0.5-1.4-0.8l-1.5-0.8l0-0.1c0.4,0.1,0.7,0.2,1.1,0.3l0,0l0,0
			l1.2,0.6c0.4,0.2,0.8,0.4,1.2,0.8c0.3,0.4,0.6,0.7,0.9,1.1C503.1,250.2,503.3,250.5,503.6,251z"/>
	</g>
</g>
<g>
	<g class="st23">
		<path d="M500.7,226.8c1.1,0.9-2.9-2.2-3.3-2.3c-1-0.4-3.8-0.8-3.8-0.8l-1.7,0.1c0,0,3.4,0.4,4.5,0.6
			C497.8,224.6,499.1,226,500.7,226.8z"/>
		<path d="M500.7,226.8c0,0.1,0.2,0.1,0.1,0.2L500.7,226.8l-0.5-0.3l-0.9-0.6l-1.7-1.2c-0.3-0.2-0.6-0.3-0.9-0.4
			c-0.3-0.1-0.7-0.2-1-0.2c-0.7-0.2-1.4-0.3-2-0.4l0,0l-1.6,0.1l0-0.1c0.8,0.1,1.6,0.1,2.3,0.2c0.8,0.1,1.5,0.2,2.3,0.3
			c0.8,0.2,1.4,0.7,2.1,1.2C499.4,225.9,500,226.4,500.7,226.8z M500.7,226.8c-0.7-0.3-1.4-0.8-2-1.2c-0.7-0.4-1.3-0.8-2-1
			c-0.7-0.1-1.5-0.2-2.3-0.3l-2.3-0.3l0-0.1l1.7-0.1l0,0l0,0l2.1,0.3c0.7,0.1,1.4,0.2,2,0.6c0.6,0.4,1.1,0.8,1.7,1.3l0.8,0.6
			L500.7,226.8l0.2,0.1C500.8,227,500.7,226.8,500.7,226.8z"/>
	</g>
	<g class="st23">
		<path d="M500.5,226c0,0-1.2-1.8-1.7-2.3c-0.6-0.5-2.3-1.4-2.3-1.4l-1.1-0.3c0,0,2.1,1,2.8,1.4C499,223.9,499.7,225,500.5,226z"/>
		<path d="M500.5,226c-0.6-0.7-1.1-1.5-1.7-2.1c-0.3-0.3-0.7-0.6-1.1-0.8c-0.4-0.3-0.8-0.5-1.2-0.7l0,0c-0.4-0.1-0.8-0.2-1.1-0.3
			l0-0.1c0.5,0.2,1,0.4,1.5,0.7c0.5,0.2,1,0.5,1.5,0.8c0.5,0.3,0.8,0.8,1.2,1.2C499.9,225.1,500.2,225.5,500.5,226z M500.6,226
			c-0.4-0.4-0.8-0.8-1.1-1.2c-0.4-0.4-0.7-0.8-1.1-1.1c-0.4-0.3-1-0.5-1.4-0.8l-1.5-0.8l0-0.1c0.4,0.1,0.7,0.2,1.1,0.3l0,0l0,0
			l1.2,0.6c0.4,0.2,0.8,0.4,1.2,0.8c0.3,0.4,0.6,0.7,0.9,1.1C500.1,225.2,500.3,225.5,500.6,226z"/>
	</g>
</g>
<g>
	<g class="st23">
		<path d="M505.8,212.1c0.7,1.2-2.1-3-2.3-3.2c-0.8-0.7-3.3-1.9-3.3-1.9l-1.6-0.4c0,0,3.1,1.4,4,2
			C503.7,209.1,504.5,210.8,505.8,212.1z"/>
		<path d="M505.8,212.1c0,0.1,0.1,0.2,0.1,0.2L505.8,212.1l-0.4-0.4l-0.6-0.8l-1.2-1.7c-0.2-0.3-0.5-0.4-0.8-0.6
			c-0.3-0.2-0.6-0.4-0.9-0.6c-0.6-0.4-1.2-0.7-1.8-1l0,0l-1.6-0.4l0-0.1c0.7,0.3,1.4,0.6,2.1,1c0.7,0.3,1.4,0.7,2.1,1.1
			c0.7,0.5,1.1,1.1,1.6,1.8C504.8,210.8,505.2,211.5,505.8,212.1z M505.7,212.1c-0.5-0.6-1-1.2-1.5-1.8c-0.5-0.6-1-1.2-1.6-1.6
			c-0.7-0.4-1.4-0.7-2.1-1.1l-2.1-1l0-0.1l1.6,0.5l0,0l0,0l1.9,1c0.6,0.4,1.3,0.6,1.7,1.2c0.4,0.6,0.8,1.1,1.2,1.7l0.6,0.9
			L505.7,212.1l0.1,0.2C505.8,212.3,505.8,212.1,505.7,212.1z"/>
	</g>
	<g class="st23">
		<path d="M505.9,211.2c0,0-0.6-2.1-0.9-2.7c-0.4-0.7-1.7-2.1-1.7-2.1l-1-0.6c0,0,1.7,1.6,2.2,2.2
			C505.1,208.8,505.4,210.1,505.9,211.2z"/>
		<path d="M505.9,211.2c-0.3-0.8-0.6-1.8-1-2.6c-0.2-0.4-0.5-0.8-0.8-1.1c-0.3-0.4-0.6-0.7-0.9-1l0,0c-0.3-0.2-0.7-0.4-1-0.6
			l0.1-0.1c0.4,0.4,0.8,0.7,1.2,1.1c0.4,0.4,0.8,0.8,1.1,1.2c0.3,0.5,0.5,1,0.7,1.5C505.6,210.2,505.7,210.7,505.9,211.2z
			 M505.9,211.2c-0.3-0.5-0.4-1-0.7-1.5c-0.2-0.5-0.4-1-0.7-1.4c-0.3-0.4-0.7-0.8-1.1-1.2l-1.1-1.2l0.1-0.1c0.3,0.2,0.6,0.4,1,0.7
			l0,0l0,0l1,1c0.3,0.3,0.6,0.7,0.9,1.1c0.2,0.4,0.3,0.9,0.5,1.3C505.7,210.3,505.8,210.8,505.9,211.2z"/>
	</g>
</g>
<g>
	<g class="st23">
		<path d="M519.7,183.3c0.5,1.3-1.4-3.4-1.6-3.7c-0.6-0.9-2.7-2.7-2.7-2.7L514,176c0,0,2.6,2.2,3.4,3
			C518.4,179.9,518.8,181.7,519.7,183.3z"/>
		<path d="M519.7,183.3c0,0.1,0.1,0.2,0,0.2L519.7,183.3l-0.3-0.5l-0.4-1l-0.9-1.9c-0.1-0.3-0.4-0.5-0.6-0.8l-0.7-0.8
			c-0.5-0.5-1-1-1.5-1.4l0,0l-1.4-0.8l0.1-0.1c0.6,0.5,1.2,1,1.8,1.5c0.6,0.5,1.2,1,1.8,1.6c0.6,0.6,0.8,1.4,1.1,2.1
			C519.1,181.8,519.3,182.6,519.7,183.3z M519.7,183.3c-0.4-0.7-0.8-1.4-1.1-2.1c-0.3-0.7-0.7-1.4-1.2-2c-0.5-0.5-1.1-1.1-1.7-1.6
			l-1.8-1.6l0.1-0.1l1.4,0.9l0,0l0,0l1.5,1.4c0.5,0.5,1.1,0.9,1.4,1.6c0.3,0.6,0.5,1.3,0.8,1.9l0.4,1L519.7,183.3l0.1,0.2
			C519.8,183.5,519.7,183.3,519.7,183.3z"/>
	</g>
	<g class="st23">
		<path d="M520,182.5c0,0-0.1-2.1-0.3-2.8c-0.2-0.7-1.2-2.4-1.2-2.4l-0.8-0.9c0,0,1.3,2,1.6,2.7C519.7,180,519.8,181.3,520,182.5z"
			/>
		<path d="M520,182.5c-0.2-0.9-0.2-1.8-0.4-2.7c-0.1-0.4-0.3-0.8-0.5-1.3c-0.2-0.4-0.4-0.8-0.6-1.2l0,0c-0.3-0.3-0.5-0.6-0.8-0.8
			l0.1-0.1c0.3,0.5,0.6,0.9,0.9,1.4c0.3,0.5,0.6,0.9,0.8,1.4c0.2,0.5,0.3,1.1,0.4,1.6C519.9,181.4,520,182,520,182.5z M520,182.5
			c-0.2-0.6-0.2-1.1-0.3-1.6c-0.1-0.5-0.2-1.1-0.4-1.5c-0.2-0.5-0.5-0.9-0.8-1.4l-0.8-1.4l0.1-0.1c0.3,0.3,0.5,0.6,0.8,0.9l0,0l0,0
			l0.7,1.2c0.2,0.4,0.5,0.8,0.6,1.3c0.1,0.5,0.1,0.9,0.2,1.4C520,181.6,520,182.1,520,182.5z"/>
	</g>
</g>
<g>
	<g class="st23">
		<path d="M486.3,176.3c-0.5,1.3,1.4-3.4,1.6-3.7c0.6-0.9,2.7-2.7,2.7-2.7l1.4-0.9c0,0-2.6,2.2-3.4,3
			C487.6,172.9,487.2,174.7,486.3,176.3z"/>
		<path d="M486.3,176.3c0,0.1,0,0.2-0.1,0.2L486.3,176.3l0.2-0.5l0.4-1c0.2-0.7,0.5-1.3,0.8-1.9c0.3-0.7,0.9-1.1,1.4-1.6l1.5-1.4
			l0,0l0,0l1.4-0.9l0.1,0.1l-1.8,1.6c-0.6,0.5-1.2,1-1.7,1.6c-0.5,0.6-0.8,1.3-1.2,2C487,174.9,486.7,175.6,486.3,176.3z
			 M486.3,176.3c0.4-0.7,0.7-1.4,1-2.1c0.3-0.7,0.6-1.5,1.1-2.1c0.6-0.6,1.2-1.1,1.8-1.6c0.6-0.5,1.2-1,1.8-1.5l0.1,0.1l-1.4,0.8
			l0,0c-0.5,0.5-1,0.9-1.5,1.4l-0.7,0.8c-0.2,0.3-0.5,0.5-0.6,0.8l-0.9,1.9l-0.4,1L486.3,176.3l0,0.2
			C486.2,176.5,486.3,176.3,486.3,176.3z"/>
	</g>
	<g class="st23">
		<path d="M486,175.5c0,0,0.1-2.1,0.3-2.8c0.2-0.7,1.2-2.4,1.2-2.4l0.8-0.9c0,0-1.3,2-1.6,2.7C486.3,173,486.2,174.3,486,175.5z"/>
		<path d="M486,175.5c0-0.5,0-0.9,0-1.4c0-0.5,0.1-0.9,0.2-1.4c0.1-0.5,0.4-0.9,0.6-1.3l0.7-1.2l0,0l0,0c0.3-0.3,0.5-0.6,0.8-0.9
			l0.1,0.1l-0.8,1.4c-0.3,0.5-0.6,0.9-0.8,1.4c-0.2,0.5-0.3,1-0.4,1.5C486.2,174.5,486.2,175,486,175.5z M486,175.5
			c0-0.5,0.1-1.1,0.1-1.6c0.1-0.5,0.1-1.1,0.4-1.6c0.2-0.5,0.5-1,0.8-1.4c0.3-0.5,0.6-0.9,0.9-1.4l0.1,0.1c-0.3,0.3-0.5,0.6-0.8,0.8
			l0,0c-0.2,0.4-0.4,0.8-0.6,1.2c-0.2,0.4-0.4,0.8-0.5,1.3C486.2,173.7,486.2,174.6,486,175.5z"/>
	</g>
</g>
<g>
	<g class="st23">
		<path d="M489.9,201.2c-0.3,1.5,1-3.8,1.1-4.2c0.5-1,2-3.1,2-3.1l1-1c0,0-1.8,2.5-2.4,3.4C490.9,197.4,490.6,199.5,489.9,201.2z"/>
		<path d="M489.9,201.2c0,0.1,0,0.2-0.1,0.2L489.9,201.2l0.1-0.5l0.2-1c0.2-0.7,0.3-1.4,0.5-2.1c0-0.2,0.1-0.3,0.1-0.5
			c0.1-0.2,0.2-0.3,0.3-0.5c0.2-0.3,0.4-0.6,0.6-0.9l1.2-1.7l0,0l0,0l1-1l0.1,0.1l-1.3,1.9c-0.4,0.6-0.9,1.3-1.3,1.9
			C490.8,198.3,490.5,199.8,489.9,201.2z M489.9,201.2c0.3-0.7,0.5-1.5,0.6-2.2c0.2-0.8,0.4-1.5,0.7-2.2c0.4-0.7,0.9-1.3,1.3-1.9
			c0.5-0.6,0.9-1.2,1.4-1.8l0.1,0.1l-1,0.9l0,0c-0.4,0.6-0.8,1.2-1.2,1.8c-0.3,0.6-0.8,1.2-0.9,1.9l-0.6,2l-0.3,1L489.9,201.2
			c0,0.1,0,0.2,0,0.3C489.8,201.4,489.9,201.3,489.9,201.2z"/>
	</g>
	<g class="st23">
		<path d="M489.7,200.4c0,0,0.1-2.3,0.2-3.1c0.1-0.8,0.9-2.7,0.9-2.7l0.6-1c0,0-0.9,2.3-1.2,3.1C489.9,197.6,489.9,199,489.7,200.4z
			"/>
		<path d="M489.7,200.4c0-0.5,0-1,0-1.5c0-0.5,0-1,0.1-1.5c0.2-1,0.6-1.9,1-2.9l0,0l0,0c0.2-0.3,0.4-0.7,0.5-1l0.1,0.1l-0.6,1.7
			c-0.2,0.6-0.4,1.1-0.6,1.7c-0.1,0.6-0.2,1.1-0.3,1.7C489.9,199.2,489.8,199.8,489.7,200.4z M489.7,200.4c0-0.6,0-1.2,0.1-1.8
			c0-0.6,0.1-1.2,0.2-1.8c0.2-0.6,0.4-1.1,0.6-1.7c0.2-0.6,0.5-1.1,0.7-1.6l0.1,0.1c-0.2,0.3-0.4,0.6-0.6,1l0,0
			c-0.2,0.5-0.3,0.9-0.5,1.4c-0.1,0.5-0.3,1-0.3,1.4C489.9,198.4,489.9,199.4,489.7,200.4z"/>
	</g>
</g>
<g>
	<g class="st23">
		<path d="M492,240.2c-0.5,1.5,1.7-3.8,1.9-4.2c0.8-1,3.3-3.1,3.3-3.1l1.7-1c0,0-3.1,2.5-4.1,3.4C493.7,236.4,493.2,238.5,492,240.2
			z"/>
		<path d="M492.1,240.2l0,0.1c0,0,0,0.1,0,0.1L492.1,240.2l0.3-0.6l0.5-1.1c0.3-0.8,0.6-1.5,1-2.2c0.4-0.7,1.1-1.2,1.7-1.8l1.8-1.6
			l0,0l0,0l1.7-1l0.1,0.1l-2.1,1.7c-0.7,0.6-1.4,1.2-2.1,1.8c-0.6,0.6-1,1.5-1.5,2.3C493,238.7,492.5,239.5,492.1,240.2z M492,240.2
			c0.5-0.8,0.8-1.6,1.2-2.5c0.4-0.8,0.7-1.7,1.4-2.4c0.7-0.6,1.4-1.2,2.1-1.8c0.7-0.6,1.4-1.1,2.2-1.7l0.1,0.1l-1.7,0.9l0,0
			c-0.6,0.5-1.2,1.1-1.8,1.6c-0.3,0.3-0.6,0.6-0.9,0.9c-0.3,0.3-0.6,0.6-0.7,0.9l-1,2.2l-0.5,1.1L492,240.2l0,0.2c0,0,0,0,0,0
			c0,0,0,0,0-0.1l0-0.1L492,240.2z"/>
	</g>
	<g class="st23">
		<path d="M491.7,239.4c0,0,0.2-2.3,0.4-3.1c0.3-0.8,1.5-2.7,1.5-2.7l1-1c0,0-1.5,2.3-2,3.1C492,236.6,492,238,491.7,239.4z"/>
		<path d="M491.7,239.4c0-0.6,0-1.1,0.1-1.6c0-0.5,0.1-1,0.2-1.6c0.2-0.5,0.4-1,0.7-1.4l0.8-1.3l0,0l0,0l0.9-1l0.1,0.1l-1,1.6
			c-0.3,0.5-0.7,1.1-1,1.6c-0.3,0.5-0.4,1.2-0.5,1.8C492,238.2,491.9,238.8,491.7,239.4z M491.7,239.4c0.1-0.6,0.1-1.2,0.2-1.9
			c0.1-0.6,0.2-1.3,0.5-1.9c0.3-0.6,0.7-1.1,1-1.6c0.3-0.5,0.7-1,1.1-1.5l0.1,0.1l-1,1l0,0c-0.3,0.4-0.5,0.9-0.8,1.4
			c-0.2,0.5-0.5,0.9-0.6,1.4C492,237.3,491.9,238.4,491.7,239.4z"/>
	</g>
</g>
<g>
	<g class="st23">
		<path d="M525.7,234.8c1.1,0.9-2.9-2.2-3.3-2.3c-1-0.4-3.8-0.8-3.8-0.8l-1.7,0.1c0,0,3.4,0.4,4.5,0.6
			C522.8,232.6,524.1,234,525.7,234.8z"/>
		<path d="M525.7,234.8c0,0.1,0.2,0.1,0.1,0.2L525.7,234.8l-0.5-0.3l-0.9-0.6l-1.7-1.2c-0.3-0.2-0.6-0.3-0.9-0.4
			c-0.3-0.1-0.7-0.2-1-0.2c-0.7-0.2-1.4-0.3-2-0.4l0,0l-1.6,0.1l0-0.1c0.8,0.1,1.6,0.1,2.3,0.2c0.8,0.1,1.5,0.2,2.3,0.3
			c0.8,0.2,1.4,0.7,2.1,1.2C524.4,233.9,525,234.4,525.7,234.8z M525.7,234.8c-0.7-0.3-1.4-0.8-2-1.2c-0.7-0.4-1.3-0.8-2-1
			c-0.7-0.1-1.5-0.2-2.3-0.3l-2.3-0.3l0-0.1l1.7-0.1l0,0l0,0l2.1,0.3c0.7,0.1,1.4,0.2,2,0.6c0.6,0.4,1.1,0.8,1.7,1.3l0.8,0.6
			L525.7,234.8l0.2,0.1C525.8,235,525.7,234.8,525.7,234.8z"/>
	</g>
	<g class="st23">
		<path d="M525.5,234c0,0-1.2-1.8-1.7-2.3c-0.6-0.5-2.3-1.4-2.3-1.4l-1.1-0.3c0,0,2.1,1,2.8,1.4C524,231.9,524.7,233,525.5,234z"/>
		<path d="M525.5,234c-0.6-0.7-1.1-1.5-1.7-2.1c-0.3-0.3-0.7-0.6-1.1-0.8c-0.4-0.3-0.8-0.5-1.2-0.7l0,0c-0.4-0.1-0.8-0.2-1.1-0.3
			l0-0.1c0.5,0.2,1,0.4,1.5,0.7c0.5,0.2,1,0.5,1.5,0.8c0.5,0.3,0.8,0.8,1.2,1.2C524.9,233.1,525.2,233.5,525.5,234z M525.6,234
			c-0.4-0.4-0.8-0.8-1.1-1.2c-0.4-0.4-0.7-0.8-1.1-1.1c-0.4-0.3-1-0.5-1.4-0.8l-1.5-0.8l0-0.1c0.4,0.1,0.7,0.2,1.1,0.3l0,0l0,0
			l1.2,0.6c0.4,0.2,0.8,0.4,1.2,0.8c0.3,0.4,0.6,0.7,0.9,1.1C525.1,233.2,525.3,233.5,525.6,234z"/>
	</g>
</g>
<g>
	<g class="st23">
		<path d="M525.5,261.2c0.6,1.2-1.9-3.1-2.1-3.4c-0.8-0.7-3.2-2.2-3.2-2.2l-1.6-0.5c0,0,3,1.6,3.9,2.2
			C523.6,258.1,524.3,259.9,525.5,261.2z"/>
		<path d="M525.5,261.2c0,0.1,0.1,0.2,0.1,0.2L525.5,261.2l-0.4-0.4l-0.6-0.9l-1.1-1.7c-0.2-0.3-0.4-0.5-0.7-0.7
			c-0.3-0.2-0.5-0.4-0.8-0.6c-0.6-0.4-1.1-0.8-1.7-1.1l0,0l-1.6-0.5l0.1-0.1c0.7,0.4,1.4,0.7,2.1,1.1c0.7,0.4,1.4,0.7,2,1.2
			c0.7,0.5,1.1,1.2,1.5,1.9C524.6,260,525,260.6,525.5,261.2z M525.5,261.3c-0.5-0.6-1-1.2-1.4-1.9c-0.5-0.6-0.9-1.3-1.5-1.8
			c-0.6-0.4-1.3-0.8-2-1.2l-2-1.2l0.1-0.1l1.6,0.6l0,0l0,0l1.8,1.1c0.6,0.4,1.2,0.7,1.7,1.3c0.4,0.6,0.7,1.2,1,1.8l0.5,0.9
			L525.5,261.3l0.1,0.2C525.5,261.5,525.5,261.3,525.5,261.3z"/>
	</g>
	<g class="st23">
		<path d="M525.7,260.4c0,0-0.4-2.1-0.7-2.7c-0.3-0.7-1.6-2.2-1.6-2.2l-0.9-0.7c0,0,1.6,1.8,2,2.4
			C525.1,257.9,525.3,259.2,525.7,260.4z"/>
		<path d="M525.7,260.4c-0.3-0.9-0.5-1.8-0.8-2.6c-0.2-0.4-0.4-0.8-0.7-1.2c-0.3-0.4-0.5-0.8-0.8-1.1l0,0c-0.3-0.2-0.6-0.4-0.9-0.7
			l0.1-0.1c0.4,0.4,0.8,0.8,1.1,1.2c0.4,0.4,0.7,0.8,1.1,1.3c0.3,0.5,0.5,1,0.6,1.6C525.4,259.4,525.5,259.9,525.7,260.4z
			 M525.7,260.4c-0.2-0.5-0.4-1-0.6-1.6c-0.2-0.5-0.3-1-0.6-1.5c-0.3-0.4-0.7-0.8-1-1.3l-1.1-1.3l0.1-0.1c0.3,0.2,0.6,0.5,0.9,0.7
			l0,0l0,0l0.9,1.1c0.3,0.4,0.6,0.7,0.8,1.2c0.2,0.4,0.3,0.9,0.4,1.4C525.5,259.5,525.6,260,525.7,260.4z"/>
	</g>
</g>
<path class="st25" d="M400.5,52.5c12.2-6.5,27.2-9.2,26.8-9.9s-9.3-0.3-28.2,9.4c-10.1,5.3-21.3,16.6-20.9,17.2S388.4,59,400.5,52.5
	z"/>
<g>
	<path class="st17" d="M212.8,351.1c1.9,7.6,7.8,12.6,18.4,10c10.6-2.7,11.5-8.4,9.6-15.9c-1.9-7.6-5.9-14.2-16.5-11.5
		C213.7,336.3,210.9,343.5,212.8,351.1z"/>
	<path class="st27" d="M217.3,350c1.9,7.6,7.8,12.6,18.4,10c10.6-2.7,11.5-8.4,9.6-15.9c-1.9-7.6-5.9-14.2-16.5-11.5
		C218.2,335.2,215.4,342.4,217.3,350z"/>
	<path class="st28" d="M214.4,350.5c1.9,7.6,7.8,12.6,18.4,10c10.6-2.7,11.5-8.4,9.6-15.9c-1.9-7.6-5.9-14.2-16.5-11.5
		C215.2,335.7,212.4,342.9,214.4,350.5z"/>
</g>
<g class="st20">
	<path d="M603.5,337.5c0,0-0.1,12.1-4,25c-3,10-8.4,32.5-10,33c-7.6,2.5-50,4-50,4l-27,1c0,0,43.9-9.4,56-15
		C582.9,378.8,599.5,348.5,603.5,337.5z"/>
	<path d="M603.5,337.5c0.1,0.3,0,0.4,0,0.6l0,0.5l0,1.1l-0.1,2.1c-0.1,1.4-0.2,2.9-0.4,4.3c-0.3,2.8-0.7,5.7-1.3,8.5
		c-0.5,2.8-1.2,5.6-2,8.4c-0.8,2.7-1.5,5.5-2.3,8.3c-1.5,5.5-2.9,11.1-4.5,16.6c-0.4,1.4-0.8,2.7-1.3,4.1c-0.2,0.7-0.5,1.4-0.7,2
		c-0.1,0.3-0.3,0.7-0.5,1c-0.1,0.2-0.2,0.3-0.3,0.5c-0.1,0.1-0.1,0.2-0.2,0.3c-0.1,0.1-0.1,0.1-0.2,0.2c0,0-0.1,0.1-0.1,0.1l-0.1,0
		c-2.8,0.8-5.7,1.1-8.5,1.4c-11.4,1.1-22.8,1.5-34.3,2l-34.3,1.4l-0.1-0.6c9.6-2.1,19.2-4.5,28.8-6.9c4.8-1.2,9.5-2.5,14.3-3.9
		c2.4-0.7,4.7-1.4,7-2.2c2.3-0.8,4.7-1.6,6.8-2.7c2.1-1.1,4.1-2.6,5.9-4.2c1.8-1.6,3.5-3.4,5.2-5.2c3.3-3.7,6.2-7.6,9-11.7
		c2.8-4.1,5.3-8.3,7.7-12.6C599.4,346.4,601.6,342.1,603.5,337.5z M603.5,337.5c-0.3,1.1-0.8,2.3-1.3,3.4c-0.5,1.1-1,2.3-1.5,3.4
		c-1,2.2-2.1,4.5-3.3,6.6c-2.3,4.4-4.8,8.6-7.5,12.8c-2.7,4.1-5.6,8.2-8.8,11.9c-1.6,1.9-3.4,3.7-5.2,5.3c-1.9,1.7-3.8,3.2-6.1,4.4
		c-2.2,1.2-4.6,2-6.9,2.8c-2.3,0.8-4.7,1.5-7.1,2.2c-4.8,1.4-9.5,2.6-14.3,3.8c-9.6,2.4-19.2,4.5-28.9,6.6l-0.1-0.6
		c11.4-0.4,22.9-0.7,34.3-1.2c5.7-0.3,11.4-0.6,17.1-1c5.7-0.4,11.4-0.9,17.1-1.5c2.8-0.3,5.7-0.7,8.4-1.4l0.1,0c0,0,0,0,0,0
		c0,0,0,0,0,0c0,0,0.1-0.1,0.1-0.1c0.1-0.1,0.2-0.3,0.2-0.4c0.1-0.3,0.3-0.6,0.4-0.9c0.3-0.7,0.5-1.3,0.7-2c0.5-1.3,0.9-2.7,1.3-4.1
		c1.6-5.5,3.1-11,4.6-16.5c0.8-2.8,1.5-5.5,2.4-8.3c0.8-2.7,1.6-5.5,2.1-8.3C602.4,348.9,603.2,343.2,603.5,337.5z"/>
</g>
<g>
	<path class="st29" d="M641.4,394.1c15.9,2-123.5,20.7-277.5,33.7c-154,13.1-295,19.4-280.2,13.6c44.1-17.3,123.3-23.2,277.3-36.2
		C515,392.1,601.5,389,641.4,394.1z"/>
	<path class="st29" d="M641.4,394.1c0.4,0.1,0.7,0.1,1.1,0.3c0.1,0,0.2,0.1,0.2,0.2c0,0.1-0.1,0.2-0.1,0.2c-0.1,0.1-0.3,0.2-0.5,0.3
		c-0.7,0.3-1.4,0.5-2.1,0.7c-1.4,0.4-2.9,0.7-4.3,1c-2.9,0.6-5.8,1.1-8.7,1.6c-5.8,1-11.6,1.9-17.4,2.7c-11.6,1.7-23.2,3.3-34.9,4.8
		c-23.3,3-46.6,5.8-69.9,8.4c-46.7,5.2-93.4,10-140.2,14c-46.8,4.1-93.6,7.7-140.5,10.7c-23.4,1.5-46.9,2.8-70.3,3.9
		c-11.7,0.5-23.5,1-35.2,1.3c-5.9,0.2-11.7,0.3-17.6,0.3c-2.9,0-5.9,0-8.8-0.1c-1.5,0-3-0.1-4.4-0.2c-0.7-0.1-1.5-0.1-2.2-0.2
		c-0.8-0.1-1.5-0.2-2.3-0.4c-0.2-0.1-0.5-0.2-0.7-0.3c-0.2-0.1-0.4-0.2-0.6-0.6c-0.2-0.4,0-1,0.1-1.2c0.3-0.5,0.6-0.5,0.8-0.7
		c0.2-0.1,0.4-0.2,0.6-0.3l2.1-0.8l4.2-1.5c2.8-1.1,5.6-1.8,8.4-2.7c1.4-0.4,2.8-0.9,4.2-1.2l4.3-1.1c2.9-0.7,5.7-1.5,8.6-2.1
		l8.6-1.8l8.7-1.6l4.3-0.8l4.4-0.7l8.7-1.4c23.3-3.4,46.6-5.9,70-8.2c23.4-2.3,46.8-4.2,70.2-6.2l70.2-5.8
		c46.8-3.8,93.6-7.4,140.5-9.9c23.4-1.3,46.9-2.4,70.4-2.8c5.9-0.2,11.7-0.1,17.6-0.2l8.8,0c2.9,0,5.9,0,8.8,0.1
		C618,392.2,629.7,392.7,641.4,394.1z M641.4,394.1c-11.7-1.4-23.4-1.9-35.1-2.1c-2.9-0.1-5.9-0.1-8.8-0.1l-8.8,0
		c-5.9,0.1-11.7,0.1-17.6,0.3c-23.5,0.5-46.9,1.6-70.4,3c-23.4,1.3-46.9,3.1-70.3,4.8c-23.4,1.8-46.8,3.8-70.2,5.8
		c-46.8,4.1-93.6,8-140.3,12.7c-23.3,2.3-46.7,4.9-69.9,8.3l-8.7,1.4l-4.3,0.7l-4.3,0.8l-8.6,1.6l-8.6,1.9c-2.9,0.6-5.7,1.4-8.5,2.1
		l-4.3,1.1c-1.4,0.4-2.8,0.8-4.2,1.2c-2.8,0.9-5.6,1.6-8.3,2.7l-4.1,1.5l-2,0.7c-0.2,0.1-0.3,0.1-0.4,0.2c-0.1,0-0.2,0.2-0.1,0
		c0.1-0.1,0.2-0.4,0-0.7c-0.1-0.2-0.2-0.2-0.2-0.2c0,0,0.1,0.1,0.3,0.1c1.2,0.3,2.7,0.4,4.1,0.6c1.4,0.1,2.9,0.2,4.4,0.2
		c2.9,0.1,5.8,0.1,8.8,0.1c5.9,0,11.7-0.1,17.6-0.3c11.7-0.3,23.5-0.7,35.2-1.3c23.4-1,46.9-2.3,70.3-3.8
		c46.9-2.8,93.7-6.2,140.5-10c46.8-3.9,93.5-8.3,140.2-13.3c23.3-2.6,46.7-5.3,69.9-8.2c11.6-1.5,23.3-3,34.9-4.7
		c5.8-0.8,11.6-1.7,17.4-2.7c2.9-0.5,5.8-1,8.7-1.6c1.4-0.3,2.9-0.6,4.3-1c0.7-0.2,1.4-0.4,2.1-0.7c0.2-0.1,0.3-0.2,0.5-0.3
		c0.1-0.1,0.1-0.1,0.1-0.2c0-0.1-0.1-0.2-0.2-0.2C642.1,394.2,641.8,394.2,641.4,394.1z"/>
</g>
<path class="st30" d="M115.1,86.8c0,0,27.6-6.4,42-0.8c6.6,2.5,27.1,14.2,33.5,17c12.6,5.4,36.8,19.2,50.5,18.5
	c17.1-1,57.1-22.4,72.5-14.9c8.1,3.9,27.7,27.3,27.7,27.3"/>
<path class="st31" d="M109.7,134.3c0,0,25.9-11.4,41.2-8.6c6.9,1.3,29.2,8.9,36.1,10.4c13.4,3,39.7,12,53,8.7
	c16.6-4.1,51.9-32.6,68.4-28.2c8.6,2.3,32.3,21.6,32.3,21.6"/>
<path class="st32" d="M121.1,42.7c0,0,28.2-2.1,41.7,5.7c6.1,3.5,24.6,18.2,30.5,21.9c11.7,7.3,33.4,24.6,47.1,26
	c17,1.7,59.8-13.3,73.9-3.7c7.4,5.1,23.2,31.2,23.2,31.2"/>
<path class="st33" d="M205,106c0,0-3.3,6.1-6,7c-3,1-7.9-0.1-9-2c-1-1.8-1.5-6.7,1-8c6-3,12,2,12,2l6-13c0,0-8.6-0.2-11-1
	c-2-0.7-7-4-7-4l-8,15c0,0-6,5-10,3c-6-3-4.3-8.5-2-10c6-4,12,3,12,3l10-24c0,0,6.2,5,9,6c3.6,1.2,13,2,13,2L205,106z"/>
<path class="st34" d="M326,101c0,0-1,1.7-1.8,1.9c-0.9,0.3-2.4,0-2.7-0.6c-0.3-0.5-0.5-1.9,0.3-2.2c1.8-0.8,3.6,0.6,3.6,0.6l1.8-3.6
	c0,0-2.6-0.1-3.3-0.3c-0.6-0.2-2.1-1.1-2.1-1.1l-2.4,4.2c0,0-1.8,1.4-3,0.8c-1.8-0.8-1.3-2.4-0.6-2.8c1.8-1.1,3.6,0.8,3.6,0.8
	l3.1-6.7c0,0,1.9,1.4,2.7,1.7c1.1,0.4,3.9,0.6,3.9,0.6L326,101z"/>
<path class="st35" d="M295.2,123c0,0,1.7,3.2,3.1,3.7c1.6,0.5,4.1-0.1,4.7-1.1c0.5-0.9,0.8-3.6-0.5-4.2c-3.1-1.6-6.2,1.1-6.2,1.1
	l-3.1-6.9c0,0,4.5-0.1,5.7-0.6c1.1-0.4,3.6-2.1,3.6-2.1l4.2,8c0,0,3.1,2.6,5.2,1.6c3.1-1.6,2.2-4.5,1-5.3c-3.1-2.1-6.2,1.6-6.2,1.6
	l-5.2-12.7c0,0-3.2,2.7-4.7,3.2c-1.9,0.7-6.8,1.1-6.8,1.1L295.2,123z"/>
<path class="st36" d="M289.4,94.4c0,0-1.5,2.9-2.7,3.4c-1.4,0.5-3.6-0.1-4.1-1c-0.5-0.9-0.7-3.2,0.5-3.8c2.7-1.4,5.5,1,5.5,1
	l2.8-6.2c0,0-3.9-0.1-5-0.5c-0.9-0.3-3.2-1.9-3.2-1.9l-3.7,7.2c0,0-2.7,2.4-4.6,1.4c-2.7-1.5-1.9-4.1-0.9-4.8
	c2.7-1.9,5.5,1.5,5.5,1.5L284,79c0,0,2.8,2.4,4.1,2.9c1.6,0.6,5.9,1,5.9,1L289.4,94.4z"/>
<path class="st37" d="M261,142c0,0-1.9-2.1-3-4c-1-1.8-3-2-8-3c-2.2-0.4-3-3-3-3l-3,23c0,0-0.3,3.9-1,5c-1.3,2.2-6,5-10,3
	c-6-3-4.3-8.5-2-10c6-4,12,3,12,3l3-34c0,0,3.2,5,6,6c3.6,1.2,7,4,8,5C262,135,261,142,261,142z"/>
<path class="st38" d="M172.1,137c0,0-1.1-1.1-1.7-2.2c-0.6-1-1.7-1.1-4.5-1.7c-1.2-0.2-1.9-1.2-1.9-1.2l-1.5,12.2
	c0,0-0.2,2.2-0.6,2.8c-0.8,1.2-3.4,2.8-5.6,1.7c-3.4-1.7-2.4-4.7-1.1-5.5c3.4-2.2,6.8,1.7,6.8,1.7l1.7-18.8c0,0,1.8,2.8,3.4,3.3
	c2,0.7,3.9,2.2,4.5,2.8C172.6,133.1,172.1,137,172.1,137z"/>
<path class="st39" d="M188.6,170.7c0,0,0.9,1.8,1.6,2.1c0.8,0.3,2,0,2.3-0.6c0.3-0.5,0.4-2-0.3-2.4c-1.6-0.9-3.1,0.6-3.1,0.6
	l-1.6-3.9c0,0,2.2-0.1,2.9-0.3c0.5-0.2,1.8-1.2,1.8-1.2l2.1,4.5c0,0,1.6,1.5,2.6,0.9c1.6-0.9,1.1-2.6,0.5-3
	c-1.6-1.2-3.1,0.9-3.1,0.9l-2.6-7.3c0,0-1.6,1.5-2.3,1.8c-0.9,0.4-3.4,0.6-3.4,0.6L188.6,170.7z"/>
</svg>
